<svg xmlns="http://www.w3.org/2000/svg" viewBox="0 0 534 128" width="534" height="128"><defs><linearGradient id="wg" x1="0" y1="0" x2="1" y2="1"><stop offset="0.4" stop-color="#FFFFFF"/><stop offset="0.8" stop-color="#208BFF"/><stop offset="1" stop-color="#00C2D6"/></linearGradient></defs><rect x="0" y="0" width="534" height="128" rx="18" fill="#0B1F4D"/><g transform="translate(0,0) scale(1.0)">
    <g fill="none" stroke="#FFFFFF" stroke-width="11" stroke-linecap="round" stroke-linejoin="round">
      <path d="M18 44 L18 18 L44 18"/><path d="M84 18 L110 18 L110 44"/>
      <path d="M110 84 L110 110 L84 110"/><path d="M44 110 L18 110 L18 84"/></g>
    <g fill="#FFFFFF">
      <rect x="43" y="43" width="10" height="10" rx="2.5"/><rect x="59" y="43" width="10" height="10" rx="2.5"/><rect x="75" y="43" width="10" height="10" rx="2.5"/>
      <rect x="43" y="59" width="10" height="10" rx="2.5"/><rect x="75" y="59" width="10" height="10" rx="2.5"/>
      <rect x="43" y="75" width="10" height="10" rx="2.5"/><rect x="59" y="75" width="10" height="10" rx="2.5"/><rect x="75" y="75" width="10" height="10" rx="2.5"/></g>
    <g fill="none" stroke-width="3.6" stroke-linecap="round">
      <ellipse cx="64" cy="64" rx="46" ry="18" transform="rotate(-24 64 64)" stroke="#00C2D6"/>
      <ellipse cx="64" cy="64" rx="40" ry="15" transform="rotate(34 64 64)" stroke="#6A5BFF" opacity="0.9"/></g>
    <circle cx="64" cy="64" r="7.5" fill="#00C2D6"/>
    <circle cx="22" cy="70" r="6" fill="#6A5BFF"/>
    <circle cx="96" cy="44" r="5.5" fill="#00C2D6"/>
    <circle cx="70" cy="104" r="5" fill="#208BFF"/></g><g transform="translate(150,92)"><path d="M61.09 0.00 L61.09 -69.41 L53.30 -69.41 L53.30 -7.09 L53.20 -7.09 L46.50 -20.80 L22.00 -69.41 L9.59 -69.41 L9.59 0.00 L17.41 0.00 L17.41 -62.30 L17.50 -62.30 L24.20 -48.59 L48.70 0.00 L61.09 0.00 Z M112.21 -21.91 C112.21 -25.30 112.10 -32.80 108.21 -38.80 C104.10 -45.00 98.00 -46.09 94.39 -46.09 C83.30 -46.09 74.30 -35.50 74.30 -22.59 C74.30 -9.41 83.89 1.09 95.89 1.09 C102.21 1.09 107.89 -1.30 111.80 -4.09 L111.21 -10.59 C104.89 -5.41 98.30 -5.00 96.00 -5.00 C88.00 -5.00 81.60 -12.09 81.30 -21.91 L112.21 -21.91 Z M106.50 -27.41 L81.80 -27.41 C83.39 -35.00 88.71 -40.00 94.39 -40.00 C99.60 -40.00 105.21 -36.59 106.50 -27.41 Z M158.70 0.00 L158.70 -44.41 L150.90 -44.41 L150.90 -15.41 C150.90 -7.91 145.29 -4.41 138.90 -4.41 C131.79 -4.41 131.11 -7.00 131.11 -11.30 L131.11 -44.41 L123.29 -44.41 L123.29 -10.91 C123.29 -3.70 125.61 1.09 133.90 1.09 C139.20 1.09 146.29 -0.50 151.20 -4.80 L151.20 0.00 L158.70 0.00 Z M200.10 -2.70 L198.49 -8.59 C195.90 -6.50 192.70 -5.30 189.49 -5.30 C185.81 -5.30 184.40 -8.30 184.40 -13.59 L184.40 -38.59 L198.49 -38.59 L198.49 -44.41 L184.40 -44.41 L184.40 -57.09 L177.49 -57.09 L177.49 -44.41 L168.81 -44.41 L168.81 -38.59 L177.20 -38.59 L177.20 -11.91 C177.20 -5.91 178.60 1.09 185.49 1.09 C192.49 1.09 197.60 -1.41 200.10 -2.70 Z M235.70 -38.80 L235.70 -45.50 C226.80 -45.41 221.30 -40.50 218.20 -35.91 L218.20 -45.00 L211.20 -45.00 L211.20 0.00 L218.70 0.00 L218.70 -21.41 C218.70 -31.41 225.91 -38.59 235.70 -38.80 Z M252.79 0.00 L252.79 -44.41 L245.29 -44.41 L245.29 0.00 L252.79 0.00 Z M253.61 -56.59 L253.61 -65.50 L244.70 -65.50 L244.70 -56.59 L253.61 -56.59 Z M304.60 0.00 L304.60 -29.80 C304.60 -36.41 303.10 -45.50 290.90 -45.50 C281.90 -45.50 277.01 -38.70 276.40 -37.91 L276.40 -45.00 L269.19 -45.00 L269.19 0.00 L277.01 0.00 L277.01 -24.50 C277.01 -31.09 279.51 -39.41 287.10 -39.41 C296.69 -39.41 296.80 -32.30 296.80 -29.09 L296.80 0.00 L304.60 0.00 Z M359.71 -22.00 C359.71 -35.41 349.71 -46.09 337.80 -46.09 C325.50 -46.09 315.80 -35.09 315.80 -22.00 C315.80 -8.80 326.00 1.09 337.71 1.09 C349.71 1.09 359.71 -9.00 359.71 -22.00 Z M351.89 -23.00 C351.89 -11.20 345.10 -5.30 337.71 -5.30 C330.80 -5.30 323.60 -10.91 323.60 -23.00 C323.60 -35.09 331.21 -40.00 337.71 -40.00 C344.71 -40.00 351.89 -34.80 351.89 -23.00 Z" fill="#FFFFFF" stroke="#FFFFFF" stroke-width="1.6"/><path d="M61.09 0.00 L61.09 -69.41 L53.30 -69.41 L53.30 -7.09 L53.20 -7.09 L46.50 -20.80 L22.00 -69.41 L9.59 -69.41 L9.59 0.00 L17.41 0.00 L17.41 -62.30 L17.50 -62.30 L24.20 -48.59 L48.70 0.00 L61.09 0.00 Z" fill="url(#wg)" stroke="url(#wg)" stroke-width="1.6"/></g><g transform="translate(152,122)"><path d="M5.46 -11.66 L3.57 -4.89 L7.35 -4.89 L5.46 -11.66 Z M4.38 -13.24 L6.55 -13.24 L10.61 0.00 L8.75 0.00 L7.78 -3.45 L3.14 -3.45 L2.18 0.00 L0.33 0.00 L4.38 -13.24 Z M30.49 -9.58 L30.49 -7.99 Q29.79 -8.40 29.08 -8.60 Q28.37 -8.80 27.64 -8.80 Q26.53 -8.80 25.98 -8.44 Q25.44 -8.09 25.44 -7.35 Q25.44 -6.68 25.85 -6.36 Q26.25 -6.03 27.88 -5.72 L28.53 -5.60 Q29.75 -5.37 30.37 -4.67 Q31.00 -3.98 31.00 -2.87 Q31.00 -1.40 29.95 -0.57 Q28.90 0.26 27.04 0.26 Q26.31 0.26 25.50 0.10 Q24.69 -0.05 23.76 -0.36 L23.76 -2.05 Q24.67 -1.58 25.50 -1.34 Q26.33 -1.11 27.08 -1.11 Q28.16 -1.11 28.75 -1.55 Q29.35 -1.99 29.35 -2.77 Q29.35 -3.91 27.18 -4.34 L27.11 -4.36 L26.49 -4.49 Q25.08 -4.76 24.44 -5.41 Q23.79 -6.07 23.79 -7.19 Q23.79 -8.62 24.75 -9.39 Q25.72 -10.17 27.51 -10.17 Q28.31 -10.17 29.05 -10.02 Q29.78 -9.88 30.49 -9.58 Z M38.79 -8.92 Q39.09 -9.56 39.56 -9.86 Q40.02 -10.17 40.68 -10.17 Q41.88 -10.17 42.37 -9.24 Q42.86 -8.32 42.86 -5.75 L42.86 0.00 L41.37 0.00 L41.37 -5.68 Q41.37 -7.79 41.14 -8.29 Q40.90 -8.80 40.28 -8.80 Q39.57 -8.80 39.31 -8.26 Q39.05 -7.71 39.05 -5.68 L39.05 0.00 L37.56 0.00 L37.56 -5.68 Q37.56 -7.81 37.31 -8.31 Q37.05 -8.80 36.40 -8.80 Q35.75 -8.80 35.50 -8.26 Q35.25 -7.71 35.25 -5.68 L35.25 0.00 L33.77 0.00 L33.77 -9.93 L35.25 -9.93 L35.25 -9.08 Q35.54 -9.61 35.98 -9.89 Q36.42 -10.17 36.97 -10.17 Q37.65 -10.17 38.10 -9.86 Q38.54 -9.55 38.79 -8.92 Z M49.96 -4.99 L49.41 -4.99 Q47.99 -4.99 47.26 -4.49 Q46.54 -3.99 46.54 -3.00 Q46.54 -2.10 47.08 -1.61 Q47.62 -1.11 48.58 -1.11 Q49.93 -1.11 50.70 -2.04 Q51.47 -2.98 51.48 -4.63 L51.48 -4.99 L49.96 -4.99 Z M53.12 -5.67 L53.12 0.00 L51.48 0.00 L51.48 -1.47 Q50.96 -0.58 50.16 -0.16 Q49.37 0.26 48.24 0.26 Q46.72 0.26 45.81 -0.60 Q44.91 -1.46 44.91 -2.89 Q44.91 -4.55 46.02 -5.41 Q47.14 -6.27 49.29 -6.27 L51.48 -6.27 L51.48 -6.53 Q51.47 -7.71 50.88 -8.25 Q50.28 -8.79 48.98 -8.79 Q48.15 -8.79 47.29 -8.55 Q46.44 -8.31 45.64 -7.85 L45.64 -9.48 Q46.54 -9.83 47.37 -10.00 Q48.20 -10.17 48.98 -10.17 Q50.21 -10.17 51.09 -9.81 Q51.96 -9.44 52.50 -8.72 Q52.84 -8.27 52.98 -7.62 Q53.12 -6.97 53.12 -5.67 Z M60.33 -3.60 Q60.33 -2.50 60.73 -1.94 Q61.14 -1.38 61.92 -1.38 L63.83 -1.38 L63.83 0.00 L61.77 0.00 Q60.30 0.00 59.50 -0.94 Q58.70 -1.88 58.70 -3.60 L58.70 -12.62 L56.08 -12.62 L56.08 -13.89 L60.33 -13.89 L60.33 -3.60 Z M71.26 -3.60 Q71.26 -2.50 71.67 -1.94 Q72.07 -1.38 72.86 -1.38 L74.76 -1.38 L74.76 0.00 L72.70 0.00 Q71.24 0.00 70.43 -0.94 Q69.63 -1.88 69.63 -3.60 L69.63 -12.62 L67.01 -12.62 L67.01 -13.89 L71.26 -13.89 L71.26 -3.60 Z M96.89 -13.80 L96.89 -12.44 L95.03 -12.44 Q94.15 -12.44 93.81 -12.08 Q93.47 -11.72 93.47 -10.81 L93.47 -9.93 L96.89 -9.93 L96.89 -8.66 L93.47 -8.66 L93.47 0.00 L91.84 0.00 L91.84 -8.66 L89.19 -8.66 L89.19 -9.93 L91.84 -9.93 L91.84 -10.62 Q91.84 -12.25 92.59 -13.03 Q93.34 -13.80 94.93 -13.80 L96.89 -13.80 Z M100.12 -3.76 L100.12 -9.91 L101.75 -9.91 L101.75 -3.76 Q101.75 -2.42 102.23 -1.79 Q102.70 -1.16 103.70 -1.16 Q104.85 -1.16 105.46 -1.97 Q106.07 -2.78 106.07 -4.30 L106.07 -9.91 L107.71 -9.91 L107.71 0.00 L106.07 0.00 L106.07 -1.49 Q105.64 -0.63 104.89 -0.18 Q104.14 0.26 103.14 0.26 Q101.61 0.26 100.87 -0.74 Q100.12 -1.74 100.12 -3.76 Z M118.64 -6.15 L118.64 0.00 L117.00 0.00 L117.00 -6.15 Q117.00 -7.49 116.53 -8.12 Q116.07 -8.75 115.06 -8.75 Q113.92 -8.75 113.30 -7.94 Q112.69 -7.13 112.69 -5.61 L112.69 0.00 L111.05 0.00 L111.05 -9.93 L112.69 -9.93 L112.69 -8.44 Q113.12 -9.29 113.87 -9.73 Q114.61 -10.17 115.63 -10.17 Q117.15 -10.17 117.90 -9.17 Q118.64 -8.17 118.64 -6.15 Z M129.67 -0.51 Q129.01 -0.12 128.31 0.07 Q127.62 0.26 126.89 0.26 Q124.59 0.26 123.29 -1.12 Q121.99 -2.51 121.99 -4.96 Q121.99 -7.40 123.29 -8.78 Q124.59 -10.17 126.89 -10.17 Q127.61 -10.17 128.29 -9.98 Q128.98 -9.80 129.67 -9.41 L129.67 -7.70 Q129.02 -8.27 128.37 -8.53 Q127.72 -8.79 126.89 -8.79 Q125.36 -8.79 124.53 -7.79 Q123.71 -6.80 123.71 -4.96 Q123.71 -3.12 124.54 -2.12 Q125.37 -1.13 126.89 -1.13 Q127.74 -1.13 128.42 -1.39 Q129.09 -1.65 129.67 -2.20 L129.67 -0.51 Z M136.64 -12.75 L136.64 -9.93 L140.34 -9.93 L140.34 -8.66 L136.64 -8.66 L136.64 -3.27 Q136.64 -2.17 137.05 -1.74 Q137.47 -1.30 138.51 -1.30 L140.34 -1.30 L140.34 0.00 L138.35 0.00 Q136.51 0.00 135.76 -0.73 Q135.01 -1.47 135.01 -3.27 L135.01 -8.66 L132.35 -8.66 L132.35 -9.93 L135.01 -9.93 L135.01 -12.75 L136.64 -12.75 Z M144.39 -9.93 L148.57 -9.93 L148.57 -1.27 L151.81 -1.27 L151.81 0.00 L143.70 0.00 L143.70 -1.27 L146.94 -1.27 L146.94 -8.66 L144.39 -8.66 L144.39 -9.93 Z M146.94 -13.80 L148.57 -13.80 L148.57 -11.73 L146.94 -11.73 L146.94 -13.80 Z M158.52 -8.79 Q157.28 -8.79 156.64 -7.82 Q156.00 -6.86 156.00 -4.96 Q156.00 -3.07 156.64 -2.10 Q157.28 -1.13 158.52 -1.13 Q159.77 -1.13 160.41 -2.10 Q161.05 -3.07 161.05 -4.96 Q161.05 -6.86 160.41 -7.82 Q159.77 -8.79 158.52 -8.79 Z M158.52 -10.17 Q160.59 -10.17 161.68 -8.83 Q162.78 -7.49 162.78 -4.96 Q162.78 -2.41 161.68 -1.08 Q160.59 0.26 158.52 0.26 Q156.45 0.26 155.36 -1.08 Q154.27 -2.41 154.27 -4.96 Q154.27 -7.49 155.36 -8.83 Q156.45 -10.17 158.52 -10.17 Z M173.31 -6.15 L173.31 0.00 L171.67 0.00 L171.67 -6.15 Q171.67 -7.49 171.20 -8.12 Q170.73 -8.75 169.73 -8.75 Q168.58 -8.75 167.97 -7.94 Q167.35 -7.13 167.35 -5.61 L167.35 0.00 L165.72 0.00 L165.72 -9.93 L167.35 -9.93 L167.35 -8.44 Q167.79 -9.29 168.53 -9.73 Q169.28 -10.17 170.30 -10.17 Q171.81 -10.17 172.56 -9.17 Q173.31 -8.17 173.31 -6.15 Z M181.15 -4.99 L180.61 -4.99 Q179.18 -4.99 178.46 -4.49 Q177.74 -3.99 177.74 -3.00 Q177.74 -2.10 178.27 -1.61 Q178.82 -1.11 179.77 -1.11 Q181.12 -1.11 181.89 -2.04 Q182.66 -2.98 182.67 -4.63 L182.67 -4.99 L181.15 -4.99 Z M184.31 -5.67 L184.31 0.00 L182.67 0.00 L182.67 -1.47 Q182.15 -0.58 181.36 -0.16 Q180.56 0.26 179.43 0.26 Q177.91 0.26 177.01 -0.60 Q176.10 -1.46 176.10 -2.89 Q176.10 -4.55 177.22 -5.41 Q178.33 -6.27 180.48 -6.27 L182.67 -6.27 L182.67 -6.53 Q182.66 -7.71 182.07 -8.25 Q181.47 -8.79 180.17 -8.79 Q179.34 -8.79 178.49 -8.55 Q177.64 -8.31 176.83 -7.85 L176.83 -9.48 Q177.74 -9.83 178.56 -10.00 Q179.39 -10.17 180.17 -10.17 Q181.40 -10.17 182.28 -9.81 Q183.15 -9.44 183.69 -8.72 Q184.03 -8.27 184.17 -7.62 Q184.31 -6.97 184.31 -5.67 Z M191.52 -3.60 Q191.52 -2.50 191.93 -1.94 Q192.33 -1.38 193.12 -1.38 L195.02 -1.38 L195.02 0.00 L192.96 0.00 Q191.50 0.00 190.69 -0.94 Q189.89 -1.88 189.89 -3.60 L189.89 -12.62 L187.27 -12.62 L187.27 -13.89 L191.52 -13.89 L191.52 -3.60 Z M213.95 -4.99 L213.40 -4.99 Q211.98 -4.99 211.25 -4.49 Q210.53 -3.99 210.53 -3.00 Q210.53 -2.10 211.07 -1.61 Q211.61 -1.11 212.57 -1.11 Q213.92 -1.11 214.69 -2.04 Q215.46 -2.98 215.47 -4.63 L215.47 -4.99 L213.95 -4.99 Z M217.11 -5.67 L217.11 0.00 L215.47 0.00 L215.47 -1.47 Q214.95 -0.58 214.15 -0.16 Q213.36 0.26 212.23 0.26 Q210.71 0.26 209.80 -0.60 Q208.90 -1.46 208.90 -2.89 Q208.90 -4.55 210.01 -5.41 Q211.13 -6.27 213.28 -6.27 L215.47 -6.27 L215.47 -6.53 Q215.46 -7.71 214.87 -8.25 Q214.27 -8.79 212.97 -8.79 Q212.14 -8.79 211.29 -8.55 Q210.43 -8.31 209.63 -7.85 L209.63 -9.48 Q210.53 -9.83 211.36 -10.00 Q212.19 -10.17 212.97 -10.17 Q214.20 -10.17 215.08 -9.81 Q215.95 -9.44 216.49 -8.72 Q216.83 -8.27 216.97 -7.62 Q217.11 -6.97 217.11 -5.67 Z M228.89 -7.88 Q228.37 -8.29 227.83 -8.48 Q227.29 -8.66 226.64 -8.66 Q225.12 -8.66 224.31 -7.70 Q223.50 -6.75 223.50 -4.94 L223.50 0.00 L221.86 0.00 L221.86 -9.93 L223.50 -9.93 L223.50 -7.99 Q223.91 -9.05 224.76 -9.61 Q225.61 -10.17 226.77 -10.17 Q227.37 -10.17 227.89 -10.02 Q228.42 -9.87 228.89 -9.55 L228.89 -7.88 Z M239.83 -7.88 Q239.30 -8.29 238.76 -8.48 Q238.22 -8.66 237.58 -8.66 Q236.05 -8.66 235.24 -7.70 Q234.44 -6.75 234.44 -4.94 L234.44 0.00 L232.80 0.00 L232.80 -9.93 L234.44 -9.93 L234.44 -7.99 Q234.84 -9.05 235.69 -9.61 Q236.54 -10.17 237.70 -10.17 Q238.30 -10.17 238.83 -10.02 Q239.35 -9.87 239.83 -9.55 L239.83 -7.88 Z M246.74 -4.99 L246.20 -4.99 Q244.78 -4.99 244.05 -4.49 Q243.33 -3.99 243.33 -3.00 Q243.33 -2.10 243.87 -1.61 Q244.41 -1.11 245.37 -1.11 Q246.72 -1.11 247.49 -2.04 Q248.26 -2.98 248.27 -4.63 L248.27 -4.99 L246.74 -4.99 Z M249.91 -5.67 L249.91 0.00 L248.27 0.00 L248.27 -1.47 Q247.75 -0.58 246.95 -0.16 Q246.16 0.26 245.03 0.26 Q243.51 0.26 242.60 -0.60 Q241.70 -1.46 241.70 -2.89 Q241.70 -4.55 242.81 -5.41 Q243.92 -6.27 246.08 -6.27 L248.27 -6.27 L248.27 -6.53 Q248.26 -7.71 247.66 -8.25 Q247.07 -8.79 245.77 -8.79 Q244.93 -8.79 244.08 -8.55 Q243.23 -8.31 242.43 -7.85 L242.43 -9.48 Q243.33 -9.83 244.16 -10.00 Q244.99 -10.17 245.77 -10.17 Q247.00 -10.17 247.87 -9.81 Q248.75 -9.44 249.29 -8.72 Q249.62 -8.27 249.77 -7.62 Q249.91 -6.97 249.91 -5.67 Z M259.06 -3.19 Q258.65 -2.15 258.02 -0.46 Q257.14 1.88 256.84 2.39 Q256.43 3.09 255.82 3.43 Q255.21 3.78 254.40 3.78 L253.08 3.78 L253.08 2.41 L254.05 2.41 Q254.77 2.41 255.17 1.99 Q255.58 1.58 256.21 -0.16 L252.37 -9.93 L254.10 -9.93 L257.05 -2.16 L259.95 -9.93 L261.68 -9.93 L259.06 -3.19 Z M278.98 -3.60 Q278.98 -2.50 279.39 -1.94 Q279.79 -1.38 280.58 -1.38 L282.48 -1.38 L282.48 0.00 L280.42 0.00 Q278.96 0.00 278.16 -0.94 Q277.35 -1.88 277.35 -3.60 L277.35 -12.62 L274.74 -12.62 L274.74 -13.89 L278.98 -13.89 L278.98 -3.60 Z M290.48 -4.99 L289.93 -4.99 Q288.51 -4.99 287.78 -4.49 Q287.06 -3.99 287.06 -3.00 Q287.06 -2.10 287.60 -1.61 Q288.14 -1.11 289.10 -1.11 Q290.45 -1.11 291.22 -2.04 Q291.99 -2.98 292.00 -4.63 L292.00 -4.99 L290.48 -4.99 Z M293.64 -5.67 L293.64 0.00 L292.00 0.00 L292.00 -1.47 Q291.48 -0.58 290.68 -0.16 Q289.89 0.26 288.76 0.26 Q287.24 0.26 286.33 -0.60 Q285.43 -1.46 285.43 -2.89 Q285.43 -4.55 286.54 -5.41 Q287.66 -6.27 289.81 -6.27 L292.00 -6.27 L292.00 -6.53 Q291.99 -7.71 291.39 -8.25 Q290.80 -8.79 289.50 -8.79 Q288.67 -8.79 287.81 -8.55 Q286.96 -8.31 286.16 -7.85 L286.16 -9.48 Q287.06 -9.83 287.89 -10.00 Q288.72 -10.17 289.50 -10.17 Q290.73 -10.17 291.60 -9.81 Q292.48 -9.44 293.02 -8.72 Q293.36 -8.27 293.50 -7.62 Q293.64 -6.97 293.64 -5.67 Z M304.50 -6.15 L304.50 0.00 L302.86 0.00 L302.86 -6.15 Q302.86 -7.49 302.39 -8.12 Q301.92 -8.75 300.92 -8.75 Q299.78 -8.75 299.16 -7.94 Q298.54 -7.13 298.54 -5.61 L298.54 0.00 L296.91 0.00 L296.91 -9.93 L298.54 -9.93 L298.54 -8.44 Q298.98 -9.29 299.72 -9.73 Q300.47 -10.17 301.49 -10.17 Q303.00 -10.17 303.75 -9.17 Q304.50 -8.17 304.50 -6.15 Z M313.72 -5.04 Q313.72 -6.88 313.12 -7.83 Q312.53 -8.79 311.38 -8.79 Q310.18 -8.79 309.55 -7.83 Q308.93 -6.88 308.93 -5.04 Q308.93 -3.21 309.56 -2.25 Q310.20 -1.29 311.40 -1.29 Q312.53 -1.29 313.12 -2.25 Q313.72 -3.22 313.72 -5.04 Z M315.35 -0.64 Q315.35 1.60 314.30 2.75 Q313.25 3.90 311.20 3.90 Q310.52 3.90 309.78 3.78 Q309.05 3.65 308.31 3.41 L308.31 1.80 Q309.18 2.21 309.89 2.40 Q310.60 2.60 311.20 2.60 Q312.52 2.60 313.12 1.88 Q313.72 1.16 313.72 -0.40 L313.72 -0.47 L313.72 -1.58 Q313.33 -0.75 312.66 -0.34 Q311.99 0.07 311.02 0.07 Q309.28 0.07 308.24 -1.32 Q307.21 -2.71 307.21 -5.04 Q307.21 -7.39 308.24 -8.78 Q309.28 -10.17 311.02 -10.17 Q311.98 -10.17 312.64 -9.79 Q313.31 -9.41 313.72 -8.61 L313.72 -9.90 L315.35 -9.90 L315.35 -0.64 Z M318.78 -3.76 L318.78 -9.91 L320.41 -9.91 L320.41 -3.76 Q320.41 -2.42 320.88 -1.79 Q321.36 -1.16 322.35 -1.16 Q323.50 -1.16 324.11 -1.97 Q324.73 -2.78 324.73 -4.30 L324.73 -9.91 L326.37 -9.91 L326.37 0.00 L324.73 0.00 L324.73 -1.49 Q324.29 -0.63 323.54 -0.18 Q322.79 0.26 321.79 0.26 Q320.27 0.26 319.52 -0.74 Q318.78 -1.74 318.78 -3.76 Z M334.21 -4.99 L333.66 -4.99 Q332.24 -4.99 331.51 -4.49 Q330.79 -3.99 330.79 -3.00 Q330.79 -2.10 331.33 -1.61 Q331.87 -1.11 332.83 -1.11 Q334.18 -1.11 334.95 -2.04 Q335.72 -2.98 335.73 -4.63 L335.73 -4.99 L334.21 -4.99 Z M337.37 -5.67 L337.37 0.00 L335.73 0.00 L335.73 -1.47 Q335.21 -0.58 334.41 -0.16 Q333.62 0.26 332.49 0.26 Q330.97 0.26 330.06 -0.60 Q329.16 -1.46 329.16 -2.89 Q329.16 -4.55 330.27 -5.41 Q331.39 -6.27 333.54 -6.27 L335.73 -6.27 L335.73 -6.53 Q335.72 -7.71 335.13 -8.25 Q334.53 -8.79 333.23 -8.79 Q332.40 -8.79 331.54 -8.55 Q330.69 -8.31 329.89 -7.85 L329.89 -9.48 Q330.79 -9.83 331.62 -10.00 Q332.45 -10.17 333.23 -10.17 Q334.46 -10.17 335.34 -9.81 Q336.21 -9.44 336.75 -8.72 Q337.09 -8.27 337.23 -7.62 Q337.37 -6.97 337.37 -5.67 Z M346.52 -5.04 Q346.52 -6.88 345.92 -7.83 Q345.32 -8.79 344.18 -8.79 Q342.98 -8.79 342.35 -7.83 Q341.73 -6.88 341.73 -5.04 Q341.73 -3.21 342.36 -2.25 Q342.99 -1.29 344.20 -1.29 Q345.32 -1.29 345.92 -2.25 Q346.52 -3.22 346.52 -5.04 Z M348.15 -0.64 Q348.15 1.60 347.10 2.75 Q346.04 3.90 344.00 3.90 Q343.32 3.90 342.58 3.78 Q341.85 3.65 341.11 3.41 L341.11 1.80 Q341.98 2.21 342.69 2.40 Q343.40 2.60 344.00 2.60 Q345.31 2.60 345.92 1.88 Q346.52 1.16 346.52 -0.40 L346.52 -0.47 L346.52 -1.58 Q346.13 -0.75 345.46 -0.34 Q344.78 0.07 343.82 0.07 Q342.08 0.07 341.04 -1.32 Q340.00 -2.71 340.00 -5.04 Q340.00 -7.39 341.04 -8.78 Q342.08 -10.17 343.82 -10.17 Q344.78 -10.17 345.44 -9.79 Q346.10 -9.41 346.52 -8.61 L346.52 -9.90 L348.15 -9.90 L348.15 -0.64 Z M359.71 -5.37 L359.71 -4.58 L352.64 -4.58 L352.64 -4.52 Q352.64 -2.90 353.48 -2.01 Q354.33 -1.13 355.88 -1.13 Q356.66 -1.13 357.51 -1.37 Q358.36 -1.62 359.33 -2.13 L359.33 -0.51 Q358.40 -0.12 357.53 0.07 Q356.66 0.26 355.86 0.26 Q353.54 0.26 352.24 -1.13 Q350.94 -2.52 350.94 -4.96 Q350.94 -7.33 352.21 -8.75 Q353.49 -10.17 355.62 -10.17 Q357.52 -10.17 358.61 -8.88 Q359.71 -7.60 359.71 -5.37 Z M358.07 -5.85 Q358.04 -7.29 357.40 -8.04 Q356.75 -8.79 355.55 -8.79 Q354.37 -8.79 353.61 -8.01 Q352.84 -7.23 352.70 -5.84 L358.07 -5.85 Z" fill="#C4CCD8"/></g></svg>