<svg xmlns="http://www.w3.org/2000/svg" viewBox="0 0 1200 630" width="1200" height="630"><defs><linearGradient id="ogN" x1="0" y1="0" x2="1" y2="1"><stop offset="0.4" stop-color="#FFFFFF"/><stop offset="0.8" stop-color="#208BFF"/><stop offset="1" stop-color="#00C2D6"/></linearGradient><radialGradient id="bg" cx="0.5" cy="0.32" r="0.9"><stop offset="0" stop-color="#14306B"/><stop offset="0.6" stop-color="#0B1F4D"/><stop offset="1" stop-color="#081736"/></radialGradient></defs><rect width="1200" height="630" fill="url(#bg)"/><g opacity="0.10" fill="none" stroke-width="2.5"><ellipse cx="1010" cy="120" rx="240" ry="92" transform="rotate(-22 1010 120)" stroke="#00C2D6"/><ellipse cx="200" cy="540" rx="210" ry="80" transform="rotate(28 200 540)" stroke="#6A5BFF"/></g><g opacity="0.09" fill="#00C2D6"><rect x="1050" y="300" width="12" height="12" rx="3"/><rect x="1072" y="300" width="12" height="12" rx="3"/><rect x="1094" y="300" width="12" height="12" rx="3"/><rect x="1050" y="322" width="12" height="12" rx="3"/><rect x="1072" y="322" width="12" height="12" rx="3"/><rect x="1094" y="322" width="12" height="12" rx="3"/><rect x="1050" y="344" width="12" height="12" rx="3"/><rect x="1072" y="344" width="12" height="12" rx="3"/><rect x="1094" y="344" width="12" height="12" rx="3"/></g><g transform="translate(150.2570686340332,138.0) scale(1.75)">
    <g fill="none" stroke="#FFFFFF" stroke-width="11" stroke-linecap="round" stroke-linejoin="round">
      <path d="M18 44 L18 18 L44 18"/><path d="M84 18 L110 18 L110 44"/>
      <path d="M110 84 L110 110 L84 110"/><path d="M44 110 L18 110 L18 84"/></g>
    <g fill="#FFFFFF">
      <rect x="43" y="43" width="10" height="10" rx="2.5"/><rect x="59" y="43" width="10" height="10" rx="2.5"/><rect x="75" y="43" width="10" height="10" rx="2.5"/>
      <rect x="43" y="59" width="10" height="10" rx="2.5"/><rect x="75" y="59" width="10" height="10" rx="2.5"/>
      <rect x="43" y="75" width="10" height="10" rx="2.5"/><rect x="59" y="75" width="10" height="10" rx="2.5"/><rect x="75" y="75" width="10" height="10" rx="2.5"/></g>
    <g fill="none" stroke-width="3.6" stroke-linecap="round">
      <ellipse cx="64" cy="64" rx="46" ry="18" transform="rotate(-24 64 64)" stroke="#00C2D6"/>
      <ellipse cx="64" cy="64" rx="40" ry="15" transform="rotate(34 64 64)" stroke="#6A5BFF" opacity="0.9"/></g>
    <circle cx="64" cy="64" r="7.5" fill="#00C2D6"/>
    <circle cx="22" cy="70" r="6" fill="#6A5BFF"/>
    <circle cx="96" cy="44" r="5.5" fill="#00C2D6"/>
    <circle cx="70" cy="104" r="5" fill="#208BFF"/></g><g transform="translate(420.3,310.7) scale(1.75)"><path d="M61.09 0.00 L61.09 -69.41 L53.30 -69.41 L53.30 -7.09 L53.20 -7.09 L46.50 -20.80 L22.00 -69.41 L9.59 -69.41 L9.59 0.00 L17.41 0.00 L17.41 -62.30 L17.50 -62.30 L24.20 -48.59 L48.70 0.00 L61.09 0.00 Z M112.21 -21.91 C112.21 -25.30 112.10 -32.80 108.21 -38.80 C104.10 -45.00 98.00 -46.09 94.39 -46.09 C83.30 -46.09 74.30 -35.50 74.30 -22.59 C74.30 -9.41 83.89 1.09 95.89 1.09 C102.21 1.09 107.89 -1.30 111.80 -4.09 L111.21 -10.59 C104.89 -5.41 98.30 -5.00 96.00 -5.00 C88.00 -5.00 81.60 -12.09 81.30 -21.91 L112.21 -21.91 Z M106.50 -27.41 L81.80 -27.41 C83.39 -35.00 88.71 -40.00 94.39 -40.00 C99.60 -40.00 105.21 -36.59 106.50 -27.41 Z M158.70 0.00 L158.70 -44.41 L150.90 -44.41 L150.90 -15.41 C150.90 -7.91 145.29 -4.41 138.90 -4.41 C131.79 -4.41 131.11 -7.00 131.11 -11.30 L131.11 -44.41 L123.29 -44.41 L123.29 -10.91 C123.29 -3.70 125.61 1.09 133.90 1.09 C139.20 1.09 146.29 -0.50 151.20 -4.80 L151.20 0.00 L158.70 0.00 Z M200.10 -2.70 L198.49 -8.59 C195.90 -6.50 192.70 -5.30 189.49 -5.30 C185.81 -5.30 184.40 -8.30 184.40 -13.59 L184.40 -38.59 L198.49 -38.59 L198.49 -44.41 L184.40 -44.41 L184.40 -57.09 L177.49 -57.09 L177.49 -44.41 L168.81 -44.41 L168.81 -38.59 L177.20 -38.59 L177.20 -11.91 C177.20 -5.91 178.60 1.09 185.49 1.09 C192.49 1.09 197.60 -1.41 200.10 -2.70 Z M235.70 -38.80 L235.70 -45.50 C226.80 -45.41 221.30 -40.50 218.20 -35.91 L218.20 -45.00 L211.20 -45.00 L211.20 0.00 L218.70 0.00 L218.70 -21.41 C218.70 -31.41 225.91 -38.59 235.70 -38.80 Z M252.79 0.00 L252.79 -44.41 L245.29 -44.41 L245.29 0.00 L252.79 0.00 Z M253.61 -56.59 L253.61 -65.50 L244.70 -65.50 L244.70 -56.59 L253.61 -56.59 Z M304.60 0.00 L304.60 -29.80 C304.60 -36.41 303.10 -45.50 290.90 -45.50 C281.90 -45.50 277.01 -38.70 276.40 -37.91 L276.40 -45.00 L269.19 -45.00 L269.19 0.00 L277.01 0.00 L277.01 -24.50 C277.01 -31.09 279.51 -39.41 287.10 -39.41 C296.69 -39.41 296.80 -32.30 296.80 -29.09 L296.80 0.00 L304.60 0.00 Z M359.71 -22.00 C359.71 -35.41 349.71 -46.09 337.80 -46.09 C325.50 -46.09 315.80 -35.09 315.80 -22.00 C315.80 -8.80 326.00 1.09 337.71 1.09 C349.71 1.09 359.71 -9.00 359.71 -22.00 Z M351.89 -23.00 C351.89 -11.20 345.10 -5.30 337.71 -5.30 C330.80 -5.30 323.60 -10.91 323.60 -23.00 C323.60 -35.09 331.21 -40.00 337.71 -40.00 C344.71 -40.00 351.89 -34.80 351.89 -23.00 Z" fill="#FFFFFF" stroke="#FFFFFF" stroke-width="1.6"/><path d="M61.09 0.00 L61.09 -69.41 L53.30 -69.41 L53.30 -7.09 L53.20 -7.09 L46.50 -20.80 L22.00 -69.41 L9.59 -69.41 L9.59 0.00 L17.41 0.00 L17.41 -62.30 L17.50 -62.30 L24.20 -48.59 L48.70 0.00 L61.09 0.00 Z" fill="url(#ogN)" stroke="url(#ogN)" stroke-width="1.6"/></g><g transform="translate(184.0,430) scale(1)"><path d="M12.63 -26.97 L8.26 -11.30 L17.00 -11.30 L12.63 -26.97 Z M10.13 -30.62 L15.15 -30.62 L24.53 0.00 L20.24 0.00 L17.99 -7.98 L7.26 -7.98 L5.05 0.00 L0.76 0.00 L10.13 -30.62 Z M70.53 -22.17 L70.53 -18.48 Q68.91 -19.42 67.27 -19.89 Q65.63 -20.36 63.92 -20.36 Q61.36 -20.36 60.09 -19.53 Q58.83 -18.70 58.83 -17.00 Q58.83 -15.46 59.78 -14.70 Q60.72 -13.95 64.48 -13.23 L65.99 -12.94 Q68.80 -12.41 70.25 -10.81 Q71.70 -9.21 71.70 -6.65 Q71.70 -3.24 69.28 -1.32 Q66.85 0.60 62.55 0.60 Q60.85 0.60 58.98 0.24 Q57.12 -0.12 54.94 -0.84 L54.94 -4.74 Q57.06 -3.65 58.98 -3.10 Q60.91 -2.57 62.63 -2.57 Q65.13 -2.57 66.51 -3.58 Q67.88 -4.59 67.88 -6.42 Q67.88 -9.04 62.86 -10.05 L62.69 -10.09 L61.28 -10.38 Q58.01 -11.01 56.52 -12.52 Q55.02 -14.03 55.02 -16.63 Q55.02 -19.94 57.25 -21.73 Q59.49 -23.52 63.64 -23.52 Q65.48 -23.52 67.18 -23.18 Q68.89 -22.84 70.53 -22.17 Z M89.72 -20.63 Q90.42 -22.11 91.50 -22.81 Q92.57 -23.52 94.09 -23.52 Q96.86 -23.52 97.99 -21.37 Q99.14 -19.23 99.14 -13.31 L99.14 0.00 L95.69 0.00 L95.69 -13.14 Q95.69 -18.01 95.15 -19.18 Q94.60 -20.36 93.17 -20.36 Q91.53 -20.36 90.92 -19.10 Q90.32 -17.84 90.32 -13.14 L90.32 0.00 L86.87 0.00 L86.87 -13.14 Q86.87 -18.07 86.29 -19.21 Q85.70 -20.36 84.19 -20.36 Q82.69 -20.36 82.11 -19.10 Q81.52 -17.84 81.52 -13.14 L81.52 0.00 L78.10 0.00 L78.10 -22.97 L81.52 -22.97 L81.52 -21.00 Q82.20 -22.23 83.21 -22.88 Q84.23 -23.52 85.52 -23.52 Q87.07 -23.52 88.11 -22.80 Q89.15 -22.09 89.72 -20.63 Z M115.54 -11.54 L114.29 -11.54 Q110.99 -11.54 109.31 -10.38 Q107.65 -9.23 107.65 -6.93 Q107.65 -4.86 108.89 -3.71 Q110.15 -2.57 112.36 -2.57 Q115.48 -2.57 117.26 -4.72 Q119.05 -6.89 119.07 -10.70 L119.07 -11.54 L115.54 -11.54 Z M122.86 -13.11 L122.86 0.00 L119.07 0.00 L119.07 -3.41 Q117.86 -1.35 116.02 -0.37 Q114.19 0.60 111.57 0.60 Q108.05 0.60 105.96 -1.38 Q103.87 -3.37 103.87 -6.69 Q103.87 -10.52 106.45 -12.51 Q109.02 -14.50 114.00 -14.50 L119.07 -14.50 L119.07 -15.09 Q119.05 -17.84 117.67 -19.08 Q116.30 -20.32 113.29 -20.32 Q111.36 -20.32 109.39 -19.77 Q107.42 -19.21 105.55 -18.15 L105.55 -21.93 Q107.65 -22.73 109.56 -23.12 Q111.48 -23.52 113.29 -23.52 Q116.13 -23.52 118.15 -22.68 Q120.18 -21.84 121.43 -20.16 Q122.20 -19.14 122.53 -17.63 Q122.86 -16.12 122.86 -13.11 Z M139.54 -8.33 Q139.54 -5.78 140.47 -4.49 Q141.40 -3.20 143.22 -3.20 L147.63 -3.20 L147.63 0.00 L142.86 0.00 Q139.48 0.00 137.62 -2.17 Q135.76 -4.35 135.76 -8.33 L135.76 -29.18 L129.71 -29.18 L129.71 -32.14 L139.54 -32.14 L139.54 -8.33 Z M164.82 -8.33 Q164.82 -5.78 165.75 -4.49 Q166.69 -3.20 168.51 -3.20 L172.92 -3.20 L172.92 0.00 L168.14 0.00 Q164.76 0.00 162.91 -2.17 Q161.05 -4.35 161.05 -8.33 L161.05 -29.18 L155.00 -29.18 L155.00 -32.14 L164.82 -32.14 L164.82 -8.33 Z M224.09 -31.91 L224.09 -28.77 L219.80 -28.77 Q217.77 -28.77 216.98 -27.94 Q216.19 -27.11 216.19 -25.00 L216.19 -22.97 L224.09 -22.97 L224.09 -20.04 L216.19 -20.04 L216.19 0.00 L212.42 0.00 L212.42 -20.04 L206.29 -20.04 L206.29 -22.97 L212.42 -22.97 L212.42 -24.57 Q212.42 -28.34 214.15 -30.13 Q215.89 -31.91 219.55 -31.91 L224.09 -31.91 Z M231.57 -8.70 L231.57 -22.93 L235.35 -22.93 L235.35 -8.70 Q235.35 -5.60 236.44 -4.14 Q237.54 -2.68 239.84 -2.68 Q242.50 -2.68 243.92 -4.56 Q245.33 -6.44 245.33 -9.95 L245.33 -22.93 L249.13 -22.93 L249.13 0.00 L245.33 0.00 L245.33 -3.45 Q244.33 -1.46 242.60 -0.43 Q240.86 0.60 238.55 0.60 Q235.02 0.60 233.29 -1.71 Q231.57 -4.02 231.57 -8.70 Z M274.41 -14.23 L274.41 0.00 L270.62 0.00 L270.62 -14.23 Q270.62 -17.33 269.53 -18.78 Q268.45 -20.24 266.13 -20.24 Q263.49 -20.24 262.06 -18.36 Q260.63 -16.49 260.63 -12.98 L260.63 0.00 L256.86 0.00 L256.86 -22.97 L260.63 -22.97 L260.63 -19.52 Q261.64 -21.49 263.36 -22.50 Q265.09 -23.52 267.44 -23.52 Q270.95 -23.52 272.68 -21.21 Q274.41 -18.91 274.41 -14.23 Z M299.91 -1.17 Q298.39 -0.29 296.78 0.15 Q295.17 0.60 293.49 0.60 Q288.16 0.60 285.15 -2.60 Q282.14 -5.80 282.14 -11.46 Q282.14 -17.12 285.15 -20.32 Q288.16 -23.52 293.49 -23.52 Q295.15 -23.52 296.73 -23.09 Q298.31 -22.66 299.91 -21.76 L299.91 -17.80 Q298.41 -19.14 296.90 -19.73 Q295.39 -20.32 293.49 -20.32 Q289.94 -20.32 288.03 -18.03 Q286.13 -15.73 286.13 -11.46 Q286.13 -7.22 288.04 -4.91 Q289.96 -2.61 293.49 -2.61 Q295.46 -2.61 297.01 -3.21 Q298.58 -3.81 299.91 -5.09 L299.91 -1.17 Z M316.03 -29.49 L316.03 -22.97 L324.60 -22.97 L324.60 -20.04 L316.03 -20.04 L316.03 -7.57 Q316.03 -5.03 316.99 -4.02 Q317.96 -3.01 320.35 -3.01 L324.60 -3.01 L324.60 0.00 L319.98 0.00 Q315.74 0.00 313.99 -1.70 Q312.25 -3.41 312.25 -7.57 L312.25 -20.04 L306.12 -20.04 L306.12 -22.97 L312.25 -22.97 L312.25 -29.49 L316.03 -29.49 Z M333.97 -22.97 L343.63 -22.97 L343.63 -2.93 L351.12 -2.93 L351.12 0.00 L332.37 0.00 L332.37 -2.93 L339.86 -2.93 L339.86 -20.04 L333.97 -20.04 L333.97 -22.97 Z M339.86 -31.91 L343.63 -31.91 L343.63 -27.13 L339.86 -27.13 L339.86 -31.91 Z M366.64 -20.32 Q363.77 -20.32 362.29 -18.09 Q360.82 -15.85 360.82 -11.46 Q360.82 -7.09 362.29 -4.85 Q363.77 -2.61 366.64 -2.61 Q369.53 -2.61 371.01 -4.85 Q372.49 -7.09 372.49 -11.46 Q372.49 -15.85 371.01 -18.09 Q369.53 -20.32 366.64 -20.32 Z M366.64 -23.52 Q371.42 -23.52 373.95 -20.42 Q376.48 -17.33 376.48 -11.46 Q376.48 -5.58 373.96 -2.49 Q371.44 0.60 366.64 0.60 Q361.86 0.60 359.33 -2.49 Q356.81 -5.58 356.81 -11.46 Q356.81 -17.33 359.33 -20.42 Q361.86 -23.52 366.64 -23.52 Z M400.84 -14.23 L400.84 0.00 L397.05 0.00 L397.05 -14.23 Q397.05 -17.33 395.96 -18.78 Q394.88 -20.24 392.56 -20.24 Q389.92 -20.24 388.49 -18.36 Q387.06 -16.49 387.06 -12.98 L387.06 0.00 L383.29 0.00 L383.29 -22.97 L387.06 -22.97 L387.06 -19.52 Q388.07 -21.49 389.79 -22.50 Q391.52 -23.52 393.87 -23.52 Q397.38 -23.52 399.11 -21.21 Q400.84 -18.91 400.84 -14.23 Z M418.98 -11.54 L417.72 -11.54 Q414.42 -11.54 412.75 -10.38 Q411.08 -9.23 411.08 -6.93 Q411.08 -4.86 412.33 -3.71 Q413.58 -2.57 415.79 -2.57 Q418.91 -2.57 420.70 -4.72 Q422.48 -6.89 422.50 -10.70 L422.50 -11.54 L418.98 -11.54 Z M426.29 -13.11 L426.29 0.00 L422.50 0.00 L422.50 -3.41 Q421.29 -1.35 419.46 -0.37 Q417.62 0.60 415.00 0.60 Q411.49 0.60 409.39 -1.38 Q407.31 -3.37 407.31 -6.69 Q407.31 -10.52 409.88 -12.51 Q412.45 -14.50 417.43 -14.50 L422.50 -14.50 L422.50 -15.09 Q422.48 -17.84 421.10 -19.08 Q419.73 -20.32 416.72 -20.32 Q414.79 -20.32 412.82 -19.77 Q410.85 -19.21 408.99 -18.15 L408.99 -21.93 Q411.08 -22.73 413.00 -23.12 Q414.91 -23.52 416.72 -23.52 Q419.57 -23.52 421.59 -22.68 Q423.61 -21.84 424.86 -20.16 Q425.64 -19.14 425.97 -17.63 Q426.29 -16.12 426.29 -13.11 Z M442.97 -8.33 Q442.97 -5.78 443.90 -4.49 Q444.83 -3.20 446.66 -3.20 L451.07 -3.20 L451.07 0.00 L446.29 0.00 Q442.91 0.00 441.05 -2.17 Q439.20 -4.35 439.20 -8.33 L439.20 -29.18 L433.15 -29.18 L433.15 -32.14 L442.97 -32.14 L442.97 -8.33 Z M494.83 -11.54 L493.58 -11.54 Q490.28 -11.54 488.61 -10.38 Q486.94 -9.23 486.94 -6.93 Q486.94 -4.86 488.19 -3.71 Q489.44 -2.57 491.65 -2.57 Q494.77 -2.57 496.55 -4.72 Q498.34 -6.89 498.36 -10.70 L498.36 -11.54 L494.83 -11.54 Z M502.15 -13.11 L502.15 0.00 L498.36 0.00 L498.36 -3.41 Q497.15 -1.35 495.31 -0.37 Q493.48 0.60 490.86 0.60 Q487.35 0.60 485.25 -1.38 Q483.17 -3.37 483.17 -6.69 Q483.17 -10.52 485.74 -12.51 Q488.31 -14.50 493.29 -14.50 L498.36 -14.50 L498.36 -15.09 Q498.34 -17.84 496.96 -19.08 Q495.59 -20.32 492.58 -20.32 Q490.65 -20.32 488.68 -19.77 Q486.71 -19.21 484.85 -18.15 L484.85 -21.93 Q486.94 -22.73 488.86 -23.12 Q490.77 -23.52 492.58 -23.52 Q495.43 -23.52 497.45 -22.68 Q499.47 -21.84 500.72 -20.16 Q501.50 -19.14 501.82 -17.63 Q502.15 -16.12 502.15 -13.11 Z M529.41 -18.23 Q528.20 -19.18 526.95 -19.60 Q525.70 -20.04 524.20 -20.04 Q520.67 -20.04 518.80 -17.82 Q516.94 -15.61 516.94 -11.43 L516.94 0.00 L513.14 0.00 L513.14 -22.97 L516.94 -22.97 L516.94 -18.48 Q517.88 -20.92 519.84 -22.22 Q521.80 -23.52 524.48 -23.52 Q525.88 -23.52 527.09 -23.17 Q528.30 -22.82 529.41 -22.09 L529.41 -18.23 Z M554.69 -18.23 Q553.49 -19.18 552.23 -19.60 Q550.99 -20.04 549.49 -20.04 Q545.96 -20.04 544.09 -17.82 Q542.22 -15.61 542.22 -11.43 L542.22 0.00 L538.43 0.00 L538.43 -22.97 L542.22 -22.97 L542.22 -18.48 Q543.17 -20.92 545.12 -22.22 Q547.09 -23.52 549.77 -23.52 Q551.17 -23.52 552.38 -23.17 Q553.59 -22.82 554.69 -22.09 L554.69 -18.23 Z M570.69 -11.54 L569.44 -11.54 Q566.14 -11.54 564.47 -10.38 Q562.80 -9.23 562.80 -6.93 Q562.80 -4.86 564.05 -3.71 Q565.30 -2.57 567.51 -2.57 Q570.63 -2.57 572.41 -4.72 Q574.20 -6.89 574.22 -10.70 L574.22 -11.54 L570.69 -11.54 Z M578.01 -13.11 L578.01 0.00 L574.22 0.00 L574.22 -3.41 Q573.01 -1.35 571.17 -0.37 Q569.34 0.60 566.72 0.60 Q563.21 0.60 561.11 -1.38 Q559.02 -3.37 559.02 -6.69 Q559.02 -10.52 561.60 -12.51 Q564.17 -14.50 569.15 -14.50 L574.22 -14.50 L574.22 -15.09 Q574.20 -17.84 572.82 -19.08 Q571.45 -20.32 568.44 -20.32 Q566.51 -20.32 564.54 -19.77 Q562.57 -19.21 560.70 -18.15 L560.70 -21.93 Q562.80 -22.73 564.71 -23.12 Q566.63 -23.52 568.44 -23.52 Q571.28 -23.52 573.30 -22.68 Q575.33 -21.84 576.58 -20.16 Q577.35 -19.14 577.68 -17.63 Q578.01 -16.12 578.01 -13.11 Z M599.18 -7.38 Q598.24 -4.98 596.78 -1.07 Q594.75 4.35 594.05 5.54 Q593.10 7.14 591.69 7.93 Q590.28 8.73 588.39 8.73 L585.35 8.73 L585.35 5.58 L587.59 5.58 Q589.25 5.58 590.19 4.61 Q591.14 3.65 592.59 -0.37 L583.71 -22.97 L587.71 -22.97 L594.52 -5.01 L601.23 -22.97 L605.23 -22.97 L599.18 -7.38 Z M645.26 -8.33 Q645.26 -5.78 646.19 -4.49 Q647.12 -3.20 648.95 -3.20 L653.36 -3.20 L653.36 0.00 L648.58 0.00 Q645.20 0.00 643.34 -2.17 Q641.49 -4.35 641.49 -8.33 L641.49 -29.18 L635.43 -29.18 L635.43 -32.14 L645.26 -32.14 L645.26 -8.33 Z M671.84 -11.54 L670.58 -11.54 Q667.28 -11.54 665.61 -10.38 Q663.94 -9.23 663.94 -6.93 Q663.94 -4.86 665.19 -3.71 Q666.44 -2.57 668.65 -2.57 Q671.77 -2.57 673.56 -4.72 Q675.34 -6.89 675.36 -10.70 L675.36 -11.54 L671.84 -11.54 Z M679.15 -13.11 L679.15 0.00 L675.36 0.00 L675.36 -3.41 Q674.15 -1.35 672.32 -0.37 Q670.49 0.60 667.86 0.60 Q664.35 0.60 662.26 -1.38 Q660.17 -3.37 660.17 -6.69 Q660.17 -10.52 662.74 -12.51 Q665.31 -14.50 670.30 -14.50 L675.36 -14.50 L675.36 -15.09 Q675.34 -17.84 673.96 -19.08 Q672.59 -20.32 669.58 -20.32 Q667.65 -20.32 665.68 -19.77 Q663.71 -19.21 661.85 -18.15 L661.85 -21.93 Q663.94 -22.73 665.86 -23.12 Q667.78 -23.52 669.58 -23.52 Q672.43 -23.52 674.45 -22.68 Q676.47 -21.84 677.72 -20.16 Q678.50 -19.14 678.83 -17.63 Q679.15 -16.12 679.15 -13.11 Z M704.28 -14.23 L704.28 0.00 L700.48 0.00 L700.48 -14.23 Q700.48 -17.33 699.39 -18.78 Q698.31 -20.24 695.99 -20.24 Q693.35 -20.24 691.92 -18.36 Q690.50 -16.49 690.50 -12.98 L690.50 0.00 L686.72 0.00 L686.72 -22.97 L690.50 -22.97 L690.50 -19.52 Q691.51 -21.49 693.23 -22.50 Q694.95 -23.52 697.31 -23.52 Q700.81 -23.52 702.54 -21.21 Q704.28 -18.91 704.28 -14.23 Z M725.61 -11.67 Q725.61 -15.91 724.22 -18.12 Q722.84 -20.32 720.19 -20.32 Q717.42 -20.32 715.97 -18.12 Q714.52 -15.91 714.52 -11.67 Q714.52 -7.42 715.98 -5.20 Q717.45 -2.97 720.24 -2.97 Q722.84 -2.97 724.22 -5.20 Q725.61 -7.44 725.61 -11.67 Z M729.38 -1.48 Q729.38 3.69 726.94 6.36 Q724.50 9.02 719.77 9.02 Q718.20 9.02 716.50 8.73 Q714.80 8.45 713.10 7.89 L713.10 4.16 Q715.11 5.11 716.75 5.56 Q718.39 6.01 719.77 6.01 Q722.82 6.01 724.21 4.34 Q725.61 2.68 725.61 -0.93 L725.61 -1.09 L725.61 -3.65 Q724.71 -1.73 723.14 -0.78 Q721.59 0.16 719.35 0.16 Q715.34 0.16 712.93 -3.05 Q710.53 -6.27 710.53 -11.67 Q710.53 -17.08 712.93 -20.30 Q715.34 -23.52 719.35 -23.52 Q721.57 -23.52 723.11 -22.64 Q724.64 -21.76 725.61 -19.91 L725.61 -22.89 L729.38 -22.89 L729.38 -1.48 Z M737.29 -8.70 L737.29 -22.93 L741.07 -22.93 L741.07 -8.70 Q741.07 -5.60 742.16 -4.14 Q743.27 -2.68 745.56 -2.68 Q748.23 -2.68 749.64 -4.56 Q751.06 -6.44 751.06 -9.95 L751.06 -22.93 L754.85 -22.93 L754.85 0.00 L751.06 0.00 L751.06 -3.45 Q750.05 -1.46 748.32 -0.43 Q746.59 0.60 744.27 0.60 Q740.74 0.60 739.01 -1.71 Q737.29 -4.02 737.29 -8.70 Z M772.98 -11.54 L771.73 -11.54 Q768.43 -11.54 766.75 -10.38 Q765.09 -9.23 765.09 -6.93 Q765.09 -4.86 766.33 -3.71 Q767.59 -2.57 769.80 -2.57 Q772.92 -2.57 774.70 -4.72 Q776.49 -6.89 776.51 -10.70 L776.51 -11.54 L772.98 -11.54 Z M780.30 -13.11 L780.30 0.00 L776.51 0.00 L776.51 -3.41 Q775.30 -1.35 773.46 -0.37 Q771.63 0.60 769.01 0.60 Q765.49 0.60 763.40 -1.38 Q761.31 -3.37 761.31 -6.69 Q761.31 -10.52 763.89 -12.51 Q766.46 -14.50 771.44 -14.50 L776.51 -14.50 L776.51 -15.09 Q776.49 -17.84 775.11 -19.08 Q773.74 -20.32 770.72 -20.32 Q768.80 -20.32 766.83 -19.77 Q764.86 -19.21 762.99 -18.15 L762.99 -21.93 Q765.09 -22.73 767.00 -23.12 Q768.92 -23.52 770.72 -23.52 Q773.57 -23.52 775.59 -22.68 Q777.62 -21.84 778.87 -20.16 Q779.64 -19.14 779.97 -17.63 Q780.30 -16.12 780.30 -13.11 Z M801.46 -11.67 Q801.46 -15.91 800.08 -18.12 Q798.69 -20.32 796.05 -20.32 Q793.28 -20.32 791.82 -18.12 Q790.37 -15.91 790.37 -11.67 Q790.37 -7.42 791.84 -5.20 Q793.31 -2.97 796.10 -2.97 Q798.69 -2.97 800.08 -5.20 Q801.46 -7.44 801.46 -11.67 Z M805.24 -1.48 Q805.24 3.69 802.80 6.36 Q800.36 9.02 795.62 9.02 Q794.06 9.02 792.36 8.73 Q790.66 8.45 788.96 7.89 L788.96 4.16 Q790.96 5.11 792.60 5.56 Q794.25 6.01 795.62 6.01 Q798.68 6.01 800.07 4.34 Q801.46 2.68 801.46 -0.93 L801.46 -1.09 L801.46 -3.65 Q800.57 -1.73 799.00 -0.78 Q797.45 0.16 795.21 0.16 Q791.19 0.16 788.79 -3.05 Q786.39 -6.27 786.39 -11.67 Q786.39 -17.08 788.79 -20.30 Q791.19 -23.52 795.21 -23.52 Q797.43 -23.52 798.96 -22.64 Q800.50 -21.76 801.46 -19.91 L801.46 -22.89 L805.24 -22.89 L805.24 -1.48 Z M831.96 -12.43 L831.96 -10.59 L815.61 -10.59 L815.61 -10.46 Q815.61 -6.71 817.57 -4.65 Q819.53 -2.61 823.10 -2.61 Q824.91 -2.61 826.88 -3.18 Q828.84 -3.75 831.08 -4.92 L831.08 -1.17 Q828.93 -0.29 826.93 0.15 Q824.93 0.60 823.06 0.60 Q817.71 0.60 814.69 -2.61 Q811.68 -5.83 811.68 -11.46 Q811.68 -16.96 814.63 -20.24 Q817.58 -23.52 822.50 -23.52 Q826.89 -23.52 829.43 -20.55 Q831.96 -17.57 831.96 -12.43 Z M828.19 -13.54 Q828.11 -16.86 826.62 -18.59 Q825.13 -20.32 822.34 -20.32 Q819.62 -20.32 817.85 -18.52 Q816.09 -16.71 815.76 -13.51 L828.19 -13.54 Z" fill="#AEB9CC"/></g><g transform="translate(145.4,500)"><path d="M10.61 -8.73 Q10.61 -12.58 9.81 -14.24 Q9.02 -15.89 7.22 -15.89 Q5.43 -15.89 4.63 -14.24 Q3.84 -12.58 3.84 -8.73 Q3.84 -4.89 4.63 -3.23 Q5.43 -1.58 7.22 -1.58 Q9.02 -1.58 9.81 -3.23 Q10.61 -4.88 10.61 -8.73 Z M13.08 -8.73 Q13.08 -4.16 11.63 -1.91 Q10.19 0.34 7.22 0.34 Q4.25 0.34 2.81 -1.90 Q1.37 -4.14 1.37 -8.73 Q1.37 -13.31 2.82 -15.56 Q4.27 -17.81 7.22 -17.81 Q10.19 -17.81 11.63 -15.56 Q13.08 -13.31 13.08 -8.73 Z M26.88 -0.67 Q26.01 -0.16 25.10 0.09 Q24.18 0.34 23.22 0.34 Q20.17 0.34 18.45 -1.48 Q16.73 -3.31 16.73 -6.55 Q16.73 -9.78 18.45 -11.61 Q20.17 -13.44 23.22 -13.44 Q24.17 -13.44 25.07 -13.19 Q25.97 -12.95 26.88 -12.43 L26.88 -10.17 Q26.03 -10.93 25.17 -11.27 Q24.30 -11.61 23.22 -11.61 Q21.19 -11.61 20.10 -10.30 Q19.01 -8.99 19.01 -6.55 Q19.01 -4.12 20.10 -2.80 Q21.20 -1.49 23.22 -1.49 Q24.34 -1.49 25.23 -1.83 Q26.12 -2.18 26.88 -2.91 L26.88 -0.67 Z M36.09 -16.85 L36.09 -13.12 L40.99 -13.12 L40.99 -11.45 L36.09 -11.45 L36.09 -4.32 Q36.09 -2.87 36.65 -2.29 Q37.20 -1.72 38.57 -1.72 L40.99 -1.72 L40.99 0.00 L38.36 0.00 Q35.93 0.00 34.93 -0.97 Q33.94 -1.95 33.94 -4.32 L33.94 -11.45 L30.43 -11.45 L30.43 -13.12 L33.94 -13.12 L33.94 -16.85 L36.09 -16.85 Z M51.58 -6.60 L50.86 -6.60 Q48.97 -6.60 48.02 -5.93 Q47.06 -5.27 47.06 -3.96 Q47.06 -2.78 47.78 -2.12 Q48.49 -1.47 49.76 -1.47 Q51.54 -1.47 52.56 -2.70 Q53.58 -3.94 53.59 -6.12 L53.59 -6.60 L51.58 -6.60 Z M55.76 -7.49 L55.76 0.00 L53.59 0.00 L53.59 -1.95 Q52.90 -0.77 51.85 -0.21 Q50.80 0.34 49.30 0.34 Q47.30 0.34 46.10 -0.79 Q44.91 -1.92 44.91 -3.82 Q44.91 -6.01 46.38 -7.15 Q47.85 -8.28 50.69 -8.28 L53.59 -8.28 L53.59 -8.62 Q53.58 -10.20 52.79 -10.90 Q52.01 -11.61 50.29 -11.61 Q49.18 -11.61 48.06 -11.29 Q46.93 -10.98 45.87 -10.37 L45.87 -12.53 Q47.06 -12.99 48.16 -13.21 Q49.25 -13.44 50.29 -13.44 Q51.91 -13.44 53.07 -12.96 Q54.22 -12.48 54.94 -11.52 Q55.38 -10.93 55.57 -10.07 Q55.76 -9.21 55.76 -7.49 Z M58.97 -13.12 L61.21 -13.12 L65.02 -2.11 L68.84 -13.12 L71.08 -13.12 L66.41 0.00 L63.63 0.00 L58.97 -13.12 Z M85.28 -7.10 L85.28 -6.05 L75.94 -6.05 L75.94 -5.98 Q75.94 -3.83 77.05 -2.66 Q78.17 -1.49 80.21 -1.49 Q81.25 -1.49 82.37 -1.81 Q83.50 -2.15 84.77 -2.81 L84.77 -0.67 Q83.54 -0.16 82.40 0.09 Q81.26 0.34 80.19 0.34 Q77.13 0.34 75.41 -1.49 Q73.69 -3.33 73.69 -6.55 Q73.69 -9.69 75.37 -11.56 Q77.06 -13.44 79.87 -13.44 Q82.38 -13.44 83.83 -11.74 Q85.28 -10.04 85.28 -7.10 Z M83.12 -7.74 Q83.08 -9.63 82.22 -10.62 Q81.37 -11.61 79.78 -11.61 Q78.22 -11.61 77.21 -10.58 Q76.21 -9.55 76.02 -7.72 L83.12 -7.74 Z M90.87 -7.53 L96.97 -7.53 L96.97 -5.61 L90.87 -5.61 L90.87 -7.53 Z M113.60 -18.24 L113.60 -16.44 L111.15 -16.44 Q109.99 -16.44 109.54 -15.96 Q109.09 -15.49 109.09 -14.28 L109.09 -13.12 L113.60 -13.12 L113.60 -11.45 L109.09 -11.45 L109.09 0.00 L106.93 0.00 L106.93 -11.45 L103.43 -11.45 L103.43 -13.12 L106.93 -13.12 L106.93 -14.04 Q106.93 -16.20 107.92 -17.22 Q108.91 -18.24 111.01 -18.24 L113.60 -18.24 Z M123.08 -4.76 Q123.08 -3.30 123.61 -2.56 Q124.15 -1.83 125.19 -1.83 L127.71 -1.83 L127.71 0.00 L124.98 0.00 Q123.05 0.00 121.99 -1.24 Q120.93 -2.49 120.93 -4.76 L120.93 -16.68 L117.47 -16.68 L117.47 -18.36 L123.08 -18.36 L123.08 -4.76 Z M138.27 -6.60 L137.55 -6.60 Q135.67 -6.60 134.71 -5.93 Q133.76 -5.27 133.76 -3.96 Q133.76 -2.78 134.47 -2.12 Q135.19 -1.47 136.45 -1.47 Q138.23 -1.47 139.25 -2.70 Q140.27 -3.94 140.28 -6.12 L140.28 -6.60 L138.27 -6.60 Z M142.45 -7.49 L142.45 0.00 L140.28 0.00 L140.28 -1.95 Q139.59 -0.77 138.54 -0.21 Q137.50 0.34 136.00 0.34 Q133.99 0.34 132.80 -0.79 Q131.60 -1.92 131.60 -3.82 Q131.60 -6.01 133.07 -7.15 Q134.54 -8.28 137.39 -8.28 L140.28 -8.28 L140.28 -8.62 Q140.27 -10.20 139.49 -10.90 Q138.70 -11.61 136.98 -11.61 Q135.88 -11.61 134.75 -11.29 Q133.63 -10.98 132.56 -10.37 L132.56 -12.53 Q133.76 -12.99 134.85 -13.21 Q135.95 -13.44 136.98 -13.44 Q138.61 -13.44 139.76 -12.96 Q140.92 -12.48 141.63 -11.52 Q142.08 -10.93 142.26 -10.07 Q142.45 -9.21 142.45 -7.49 Z M145.67 -13.12 L147.90 -13.12 L151.71 -2.11 L155.53 -13.12 L157.77 -13.12 L153.11 0.00 L150.33 0.00 L145.67 -13.12 Z M166.16 -11.61 Q164.52 -11.61 163.68 -10.33 Q162.83 -9.06 162.83 -6.55 Q162.83 -4.05 163.68 -2.77 Q164.52 -1.49 166.16 -1.49 Q167.81 -1.49 168.66 -2.77 Q169.50 -4.05 169.50 -6.55 Q169.50 -9.06 168.66 -10.33 Q167.81 -11.61 166.16 -11.61 Z M166.16 -13.44 Q168.89 -13.44 170.34 -11.67 Q171.79 -9.90 171.79 -6.55 Q171.79 -3.19 170.34 -1.42 Q168.90 0.34 166.16 0.34 Q163.43 0.34 161.99 -1.42 Q160.55 -3.19 160.55 -6.55 Q160.55 -9.90 161.99 -11.67 Q163.43 -13.44 166.16 -13.44 Z M175.67 -4.97 L175.67 -13.10 L177.83 -13.10 L177.83 -4.97 Q177.83 -3.20 178.46 -2.37 Q179.09 -1.53 180.40 -1.53 Q181.92 -1.53 182.73 -2.61 Q183.54 -3.68 183.54 -5.68 L183.54 -13.10 L185.71 -13.10 L185.71 0.00 L183.54 0.00 L183.54 -1.97 Q182.96 -0.83 181.97 -0.24 Q180.98 0.34 179.66 0.34 Q177.64 0.34 176.66 -0.98 Q175.67 -2.30 175.67 -4.97 Z M201.37 -10.42 Q200.68 -10.96 199.97 -11.20 Q199.25 -11.45 198.40 -11.45 Q196.38 -11.45 195.31 -10.18 Q194.25 -8.92 194.25 -6.53 L194.25 0.00 L192.08 0.00 L192.08 -13.12 L194.25 -13.12 L194.25 -10.56 Q194.79 -11.96 195.91 -12.70 Q197.03 -13.44 198.56 -13.44 Q199.36 -13.44 200.05 -13.24 Q200.74 -13.04 201.37 -12.62 L201.37 -10.42 Z M215.32 -7.10 L215.32 -6.05 L205.98 -6.05 L205.98 -5.98 Q205.98 -3.83 207.10 -2.66 Q208.22 -1.49 210.26 -1.49 Q211.29 -1.49 212.41 -1.81 Q213.54 -2.15 214.82 -2.81 L214.82 -0.67 Q213.59 -0.16 212.44 0.09 Q211.30 0.34 210.24 0.34 Q207.18 0.34 205.45 -1.49 Q203.73 -3.33 203.73 -6.55 Q203.73 -9.69 205.42 -11.56 Q207.10 -13.44 209.92 -13.44 Q212.43 -13.44 213.87 -11.74 Q215.32 -10.04 215.32 -7.10 Z M213.16 -7.74 Q213.12 -9.63 212.27 -10.62 Q211.42 -11.61 209.82 -11.61 Q208.27 -11.61 207.26 -10.58 Q206.25 -9.55 206.06 -7.72 L213.16 -7.74 Z M226.79 -11.45 L226.79 -18.24 L228.95 -18.24 L228.95 0.00 L226.79 0.00 L226.79 -1.65 Q226.26 -0.68 225.36 -0.17 Q224.46 0.34 223.29 0.34 Q220.91 0.34 219.54 -1.50 Q218.18 -3.35 218.18 -6.60 Q218.18 -9.80 219.55 -11.62 Q220.92 -13.44 223.29 -13.44 Q224.47 -13.44 225.37 -12.93 Q226.28 -12.42 226.79 -11.45 Z M220.45 -6.55 Q220.45 -4.04 221.25 -2.76 Q222.05 -1.49 223.60 -1.49 Q225.16 -1.49 225.98 -2.77 Q226.79 -4.06 226.79 -6.55 Q226.79 -9.05 225.98 -10.33 Q225.16 -11.61 223.60 -11.61 Q222.05 -11.61 221.25 -10.33 Q220.45 -9.06 220.45 -6.55 Z M265.82 -10.12 L268.77 -10.12 L268.77 -6.55 L265.82 -6.55 L265.82 -10.12 Z M315.87 -0.67 Q315.00 -0.16 314.08 0.09 Q313.16 0.34 312.20 0.34 Q309.15 0.34 307.43 -1.48 Q305.72 -3.31 305.72 -6.55 Q305.72 -9.78 307.43 -11.61 Q309.15 -13.44 312.20 -13.44 Q313.15 -13.44 314.05 -13.19 Q314.95 -12.95 315.87 -12.43 L315.87 -10.17 Q315.01 -10.93 314.15 -11.27 Q313.29 -11.61 312.20 -11.61 Q310.17 -11.61 309.08 -10.30 Q307.99 -8.99 307.99 -6.55 Q307.99 -4.12 309.09 -2.80 Q310.18 -1.49 312.20 -1.49 Q313.33 -1.49 314.21 -1.83 Q315.11 -2.18 315.87 -2.91 L315.87 -0.67 Z M325.10 -11.61 Q323.46 -11.61 322.62 -10.33 Q321.78 -9.06 321.78 -6.55 Q321.78 -4.05 322.62 -2.77 Q323.46 -1.49 325.10 -1.49 Q326.76 -1.49 327.60 -2.77 Q328.44 -4.05 328.44 -6.55 Q328.44 -9.06 327.60 -10.33 Q326.76 -11.61 325.10 -11.61 Z M325.10 -13.44 Q327.83 -13.44 329.28 -11.67 Q330.73 -9.90 330.73 -6.55 Q330.73 -3.19 329.28 -1.42 Q327.84 0.34 325.10 0.34 Q322.37 0.34 320.93 -1.42 Q319.49 -3.19 319.49 -6.55 Q319.49 -9.90 320.93 -11.67 Q322.37 -13.44 325.10 -13.44 Z M340.26 -11.79 Q340.65 -12.63 341.27 -13.04 Q341.88 -13.44 342.75 -13.44 Q344.33 -13.44 344.98 -12.21 Q345.63 -10.99 345.63 -7.60 L345.63 0.00 L343.66 0.00 L343.66 -7.51 Q343.66 -10.29 343.35 -10.96 Q343.04 -11.64 342.22 -11.64 Q341.29 -11.64 340.94 -10.92 Q340.59 -10.20 340.59 -7.51 L340.59 0.00 L338.62 0.00 L338.62 -7.51 Q338.62 -10.32 338.29 -10.98 Q337.96 -11.64 337.09 -11.64 Q336.24 -11.64 335.90 -10.92 Q335.57 -10.20 335.57 -7.51 L335.57 0.00 L333.61 0.00 L333.61 -13.12 L335.57 -13.12 L335.57 -12.00 Q335.95 -12.71 336.53 -13.07 Q337.11 -13.44 337.85 -13.44 Q338.74 -13.44 339.33 -13.03 Q339.93 -12.62 340.26 -11.79 Z M351.18 -1.65 L351.18 4.99 L349.01 4.99 L349.01 -13.12 L351.18 -13.12 L351.18 -11.45 Q351.72 -12.42 352.61 -12.93 Q353.51 -13.44 354.68 -13.44 Q357.06 -13.44 358.41 -11.60 Q359.77 -9.76 359.77 -6.50 Q359.77 -3.30 358.41 -1.48 Q357.05 0.34 354.68 0.34 Q353.49 0.34 352.59 -0.17 Q351.69 -0.68 351.18 -1.65 Z M357.50 -6.55 Q357.50 -9.06 356.71 -10.33 Q355.92 -11.61 354.36 -11.61 Q352.79 -11.61 351.98 -10.33 Q351.18 -9.05 351.18 -6.55 Q351.18 -4.06 351.98 -2.77 Q352.79 -1.49 354.36 -1.49 Q355.92 -1.49 356.71 -2.76 Q357.50 -4.04 357.50 -6.55 Z M368.72 -4.76 Q368.72 -3.30 369.25 -2.56 Q369.78 -1.83 370.83 -1.83 L373.35 -1.83 L373.35 0.00 L370.62 0.00 Q368.69 0.00 367.62 -1.24 Q366.56 -2.49 366.56 -4.76 L366.56 -16.68 L363.11 -16.68 L363.11 -18.36 L368.72 -18.36 L368.72 -4.76 Z M388.71 -7.10 L388.71 -6.05 L379.37 -6.05 L379.37 -5.98 Q379.37 -3.83 380.49 -2.66 Q381.61 -1.49 383.65 -1.49 Q384.68 -1.49 385.80 -1.81 Q386.93 -2.15 388.21 -2.81 L388.21 -0.67 Q386.98 -0.16 385.83 0.09 Q384.69 0.34 383.63 0.34 Q380.57 0.34 378.84 -1.49 Q377.12 -3.33 377.12 -6.55 Q377.12 -9.69 378.81 -11.56 Q380.49 -13.44 383.31 -13.44 Q385.82 -13.44 387.26 -11.74 Q388.71 -10.04 388.71 -7.10 Z M386.55 -7.74 Q386.51 -9.63 385.66 -10.62 Q384.81 -11.61 383.21 -11.61 Q381.66 -11.61 380.65 -10.58 Q379.64 -9.55 379.45 -7.72 L386.55 -7.74 Z M403.23 -13.12 L398.53 -6.84 L403.69 0.00 L401.19 0.00 L397.35 -5.26 L393.52 0.00 L391.02 0.00 L396.18 -6.84 L391.48 -13.12 L393.87 -13.12 L397.35 -8.38 L400.81 -13.12 L403.23 -13.12 Z M426.52 -4.76 Q426.52 -3.30 427.05 -2.56 Q427.58 -1.83 428.62 -1.83 L431.14 -1.83 L431.14 0.00 L428.41 0.00 Q426.48 0.00 425.42 -1.24 Q424.36 -2.49 424.36 -4.76 L424.36 -16.68 L420.90 -16.68 L420.90 -18.36 L426.52 -18.36 L426.52 -4.76 Z M436.48 -13.12 L442.00 -13.12 L442.00 -1.68 L446.28 -1.68 L446.28 0.00 L435.56 0.00 L435.56 -1.68 L439.84 -1.68 L439.84 -11.45 L436.48 -11.45 L436.48 -13.12 Z M439.84 -18.24 L442.00 -18.24 L442.00 -15.50 L439.84 -15.50 L439.84 -18.24 Z M460.24 -8.13 L460.24 0.00 L458.07 0.00 L458.07 -8.13 Q458.07 -9.90 457.45 -10.73 Q456.83 -11.56 455.51 -11.56 Q454.00 -11.56 453.18 -10.49 Q452.37 -9.42 452.37 -7.42 L452.37 0.00 L450.21 0.00 L450.21 -13.12 L452.37 -13.12 L452.37 -11.16 Q452.94 -12.28 453.93 -12.86 Q454.91 -13.44 456.26 -13.44 Q458.26 -13.44 459.25 -12.12 Q460.24 -10.80 460.24 -8.13 Z M475.41 -7.10 L475.41 -6.05 L466.06 -6.05 L466.06 -5.98 Q466.06 -3.83 467.18 -2.66 Q468.30 -1.49 470.34 -1.49 Q471.38 -1.49 472.50 -1.81 Q473.62 -2.15 474.90 -2.81 L474.90 -0.67 Q473.67 -0.16 472.53 0.09 Q471.39 0.34 470.32 0.34 Q467.26 0.34 465.54 -1.49 Q463.81 -3.33 463.81 -6.55 Q463.81 -9.69 465.50 -11.56 Q467.19 -13.44 470.00 -13.44 Q472.51 -13.44 473.96 -11.74 Q475.41 -10.04 475.41 -7.10 Z M473.25 -7.74 Q473.20 -9.63 472.35 -10.62 Q471.50 -11.61 469.91 -11.61 Q468.35 -11.61 467.34 -10.58 Q466.33 -9.55 466.15 -7.72 L473.25 -7.74 Z M485.05 -6.60 L484.34 -6.60 Q482.45 -6.60 481.49 -5.93 Q480.54 -5.27 480.54 -3.96 Q480.54 -2.78 481.25 -2.12 Q481.97 -1.47 483.23 -1.47 Q485.01 -1.47 486.03 -2.70 Q487.05 -3.94 487.07 -6.12 L487.07 -6.60 L485.05 -6.60 Z M489.23 -7.49 L489.23 0.00 L487.07 0.00 L487.07 -1.95 Q486.38 -0.77 485.33 -0.21 Q484.28 0.34 482.78 0.34 Q480.77 0.34 479.58 -0.79 Q478.38 -1.92 478.38 -3.82 Q478.38 -6.01 479.85 -7.15 Q481.32 -8.28 484.17 -8.28 L487.07 -8.28 L487.07 -8.62 Q487.05 -10.20 486.27 -10.90 Q485.48 -11.61 483.76 -11.61 Q482.66 -11.61 481.53 -11.29 Q480.41 -10.98 479.34 -10.37 L479.34 -12.53 Q480.54 -12.99 481.64 -13.21 Q482.73 -13.44 483.76 -13.44 Q485.39 -13.44 486.54 -12.96 Q487.70 -12.48 488.42 -11.52 Q488.86 -10.93 489.05 -10.07 Q489.23 -9.21 489.23 -7.49 Z M504.81 -10.42 Q504.12 -10.96 503.40 -11.20 Q502.69 -11.45 501.83 -11.45 Q499.82 -11.45 498.75 -10.18 Q497.68 -8.92 497.68 -6.53 L497.68 0.00 L495.51 0.00 L495.51 -13.12 L497.68 -13.12 L497.68 -10.56 Q498.22 -11.96 499.34 -12.70 Q500.46 -13.44 501.99 -13.44 Q502.79 -13.44 503.48 -13.24 Q504.18 -13.04 504.81 -12.62 L504.81 -10.42 Z M528.40 -6.60 L527.68 -6.60 Q525.80 -6.60 524.84 -5.93 Q523.89 -5.27 523.89 -3.96 Q523.89 -2.78 524.60 -2.12 Q525.32 -1.47 526.58 -1.47 Q528.36 -1.47 529.38 -2.70 Q530.40 -3.94 530.41 -6.12 L530.41 -6.60 L528.40 -6.60 Z M532.58 -7.49 L532.58 0.00 L530.41 0.00 L530.41 -1.95 Q529.72 -0.77 528.67 -0.21 Q527.63 0.34 526.13 0.34 Q524.12 0.34 522.92 -0.79 Q521.73 -1.92 521.73 -3.82 Q521.73 -6.01 523.20 -7.15 Q524.67 -8.28 527.52 -8.28 L530.41 -8.28 L530.41 -8.62 Q530.40 -10.20 529.61 -10.90 Q528.83 -11.61 527.11 -11.61 Q526.01 -11.61 524.88 -11.29 Q523.76 -10.98 522.69 -10.37 L522.69 -12.53 Q523.89 -12.99 524.98 -13.21 Q526.08 -13.44 527.11 -13.44 Q528.74 -13.44 529.89 -12.96 Q531.05 -12.48 531.76 -11.52 Q532.21 -10.93 532.39 -10.07 Q532.58 -9.21 532.58 -7.49 Z M542.11 -4.76 Q542.11 -3.30 542.64 -2.56 Q543.17 -1.83 544.22 -1.83 L546.74 -1.83 L546.74 0.00 L544.01 0.00 Q542.08 0.00 541.01 -1.24 Q539.95 -2.49 539.95 -4.76 L539.95 -16.68 L536.50 -16.68 L536.50 -18.36 L542.11 -18.36 L542.11 -4.76 Z M559.12 -6.67 Q559.12 -9.09 558.33 -10.35 Q557.54 -11.61 556.03 -11.61 Q554.45 -11.61 553.62 -10.35 Q552.79 -9.09 552.79 -6.67 Q552.79 -4.24 553.62 -2.97 Q554.46 -1.70 556.06 -1.70 Q557.54 -1.70 558.33 -2.97 Q559.12 -4.25 559.12 -6.67 Z M561.28 -0.84 Q561.28 2.11 559.89 3.63 Q558.49 5.16 555.79 5.16 Q554.89 5.16 553.92 4.99 Q552.95 4.83 551.98 4.51 L551.98 2.38 Q553.12 2.92 554.06 3.18 Q555.00 3.44 555.79 3.44 Q557.53 3.44 558.33 2.48 Q559.12 1.53 559.12 -0.53 L559.12 -0.62 L559.12 -2.08 Q558.61 -0.99 557.72 -0.45 Q556.83 0.09 555.55 0.09 Q553.26 0.09 551.88 -1.74 Q550.51 -3.58 550.51 -6.67 Q550.51 -9.76 551.88 -11.60 Q553.26 -13.44 555.55 -13.44 Q556.82 -13.44 557.70 -12.94 Q558.57 -12.43 559.12 -11.38 L559.12 -13.08 L561.28 -13.08 L561.28 -0.84 Z M576.55 -7.10 L576.55 -6.05 L567.21 -6.05 L567.21 -5.98 Q567.21 -3.83 568.33 -2.66 Q569.45 -1.49 571.49 -1.49 Q572.52 -1.49 573.64 -1.81 Q574.77 -2.15 576.05 -2.81 L576.05 -0.67 Q574.82 -0.16 573.67 0.09 Q572.53 0.34 571.47 0.34 Q568.41 0.34 566.68 -1.49 Q564.96 -3.33 564.96 -6.55 Q564.96 -9.69 566.65 -11.56 Q568.33 -13.44 571.15 -13.44 Q573.66 -13.44 575.10 -11.74 Q576.55 -10.04 576.55 -7.10 Z M574.39 -7.74 Q574.35 -9.63 573.50 -10.62 Q572.65 -11.61 571.05 -11.61 Q569.50 -11.61 568.49 -10.58 Q567.48 -9.55 567.29 -7.72 L574.39 -7.74 Z M588.73 -6.55 Q588.73 -9.06 587.93 -10.33 Q587.13 -11.61 585.57 -11.61 Q584.00 -11.61 583.19 -10.33 Q582.39 -9.05 582.39 -6.55 Q582.39 -4.06 583.19 -2.77 Q584.00 -1.49 585.57 -1.49 Q587.13 -1.49 587.93 -2.76 Q588.73 -4.04 588.73 -6.55 Z M582.39 -11.45 Q582.90 -12.41 583.81 -12.92 Q584.72 -13.44 585.91 -13.44 Q588.28 -13.44 589.64 -11.62 Q591.00 -9.80 591.00 -6.60 Q591.00 -3.35 589.63 -1.50 Q588.27 0.34 585.89 0.34 Q584.72 0.34 583.82 -0.17 Q582.93 -0.68 582.39 -1.65 L582.39 0.00 L580.23 0.00 L580.23 -18.24 L582.39 -18.24 L582.39 -11.45 Z M605.95 -10.42 Q605.26 -10.96 604.55 -11.20 Q603.83 -11.45 602.98 -11.45 Q600.96 -11.45 599.89 -10.18 Q598.83 -8.92 598.83 -6.53 L598.83 0.00 L596.66 0.00 L596.66 -13.12 L598.83 -13.12 L598.83 -10.56 Q599.37 -11.96 600.48 -12.70 Q601.61 -13.44 603.14 -13.44 Q603.94 -13.44 604.63 -13.24 Q605.32 -13.04 605.95 -12.62 L605.95 -10.42 Z M615.09 -6.60 L614.38 -6.60 Q612.49 -6.60 611.54 -5.93 Q610.58 -5.27 610.58 -3.96 Q610.58 -2.78 611.30 -2.12 Q612.01 -1.47 613.28 -1.47 Q615.06 -1.47 616.08 -2.70 Q617.10 -3.94 617.11 -6.12 L617.11 -6.60 L615.09 -6.60 Z M619.28 -7.49 L619.28 0.00 L617.11 0.00 L617.11 -1.95 Q616.42 -0.77 615.37 -0.21 Q614.32 0.34 612.82 0.34 Q610.82 0.34 609.62 -0.79 Q608.43 -1.92 608.43 -3.82 Q608.43 -6.01 609.90 -7.15 Q611.37 -8.28 614.21 -8.28 L617.11 -8.28 L617.11 -8.62 Q617.10 -10.20 616.31 -10.90 Q615.53 -11.61 613.80 -11.61 Q612.70 -11.61 611.58 -11.29 Q610.45 -10.98 609.39 -10.37 L609.39 -12.53 Q610.58 -12.99 611.68 -13.21 Q612.77 -13.44 613.80 -13.44 Q615.43 -13.44 616.59 -12.96 Q617.74 -12.48 618.46 -11.52 Q618.90 -10.93 619.09 -10.07 Q619.28 -9.21 619.28 -7.49 Z M655.94 -10.12 L658.90 -10.12 L658.90 -6.55 L655.94 -6.55 L655.94 -10.12 Z M706.14 -0.62 Q705.24 -0.14 704.28 0.10 Q703.33 0.34 702.27 0.34 Q698.91 0.34 697.05 -2.04 Q695.19 -4.42 695.19 -8.73 Q695.19 -13.02 697.06 -15.42 Q698.93 -17.81 702.27 -17.81 Q703.33 -17.81 704.28 -17.57 Q705.24 -17.33 706.14 -16.85 L706.14 -14.43 Q705.27 -15.14 704.27 -15.52 Q703.28 -15.89 702.27 -15.89 Q699.96 -15.89 698.81 -14.11 Q697.66 -12.33 697.66 -8.73 Q697.66 -5.14 698.81 -3.36 Q699.96 -1.58 702.27 -1.58 Q703.30 -1.58 704.29 -1.96 Q705.28 -2.33 706.14 -3.05 L706.14 -0.62 Z M712.38 -1.99 L720.42 -1.99 L720.42 0.00 L709.79 0.00 L709.79 -1.99 Q711.98 -4.30 713.62 -6.07 Q715.26 -7.84 715.89 -8.56 Q717.06 -10.00 717.47 -10.88 Q717.88 -11.77 717.88 -12.69 Q717.88 -14.16 717.02 -14.99 Q716.16 -15.82 714.66 -15.82 Q713.59 -15.82 712.42 -15.43 Q711.25 -15.05 709.94 -14.26 L709.94 -16.65 Q711.14 -17.23 712.31 -17.52 Q713.47 -17.81 714.61 -17.81 Q717.18 -17.81 718.74 -16.45 Q720.30 -15.08 720.30 -12.87 Q720.30 -11.74 719.78 -10.62 Q719.26 -9.49 718.09 -8.13 Q717.44 -7.37 716.19 -6.02 Q714.94 -4.68 712.38 -1.99 Z M731.55 -9.36 Q733.28 -8.91 734.19 -7.74 Q735.11 -6.57 735.11 -4.83 Q735.11 -2.42 733.48 -1.03 Q731.86 0.34 728.99 0.34 Q727.78 0.34 726.53 0.12 Q725.27 -0.10 724.07 -0.53 L724.07 -2.88 Q725.26 -2.26 726.42 -1.96 Q727.58 -1.65 728.73 -1.65 Q730.68 -1.65 731.72 -2.53 Q732.76 -3.41 732.76 -5.06 Q732.76 -6.58 731.72 -7.48 Q730.68 -8.38 728.90 -8.38 L727.09 -8.38 L727.09 -10.32 L728.90 -10.32 Q730.52 -10.32 731.44 -11.04 Q732.35 -11.75 732.35 -13.03 Q732.35 -14.38 731.50 -15.10 Q730.65 -15.82 729.08 -15.82 Q728.04 -15.82 726.93 -15.58 Q725.81 -15.35 724.59 -14.88 L724.59 -17.06 Q726.01 -17.44 727.12 -17.62 Q728.23 -17.81 729.08 -17.81 Q731.64 -17.81 733.17 -16.53 Q734.70 -15.25 734.70 -13.12 Q734.70 -11.68 733.89 -10.72 Q733.09 -9.76 731.55 -9.36 Z M762.12 -6.55 Q762.12 -9.06 761.32 -10.33 Q760.52 -11.61 758.96 -11.61 Q757.39 -11.61 756.58 -10.33 Q755.78 -9.05 755.78 -6.55 Q755.78 -4.06 756.58 -2.77 Q757.39 -1.49 758.96 -1.49 Q760.52 -1.49 761.32 -2.76 Q762.12 -4.04 762.12 -6.55 Z M755.78 -11.45 Q756.29 -12.41 757.20 -12.92 Q758.11 -13.44 759.31 -13.44 Q761.67 -13.44 763.03 -11.62 Q764.39 -9.80 764.39 -6.60 Q764.39 -3.35 763.03 -1.50 Q761.66 0.34 759.28 0.34 Q758.11 0.34 757.21 -0.17 Q756.32 -0.68 755.78 -1.65 L755.78 0.00 L753.62 0.00 L753.62 -18.24 L755.78 -18.24 L755.78 -11.45 Z M775.86 -4.22 Q775.33 -2.85 774.49 -0.61 Q773.33 2.49 772.93 3.17 Q772.39 4.08 771.58 4.53 Q770.78 4.99 769.70 4.99 L767.96 4.99 L767.96 3.19 L769.24 3.19 Q770.19 3.19 770.73 2.64 Q771.27 2.08 772.10 -0.21 L767.03 -13.12 L769.31 -13.12 L773.20 -2.86 L777.04 -13.12 L779.32 -13.12 L775.86 -4.22 Z M787.45 -16.85 L787.45 -13.12 L792.35 -13.12 L792.35 -11.45 L787.45 -11.45 L787.45 -4.32 Q787.45 -2.87 788.01 -2.29 Q788.56 -1.72 789.93 -1.72 L792.35 -1.72 L792.35 0.00 L789.72 0.00 Q787.29 0.00 786.29 -0.97 Q785.30 -1.95 785.30 -4.32 L785.30 -11.45 L781.79 -11.45 L781.79 -13.12 L785.30 -13.12 L785.30 -16.85 L787.45 -16.85 Z M807.74 -7.10 L807.74 -6.05 L798.40 -6.05 L798.40 -5.98 Q798.40 -3.83 799.51 -2.66 Q800.64 -1.49 802.68 -1.49 Q803.71 -1.49 804.83 -1.81 Q805.96 -2.15 807.24 -2.81 L807.24 -0.67 Q806.01 -0.16 804.86 0.09 Q803.72 0.34 802.65 0.34 Q799.59 0.34 797.87 -1.49 Q796.15 -3.33 796.15 -6.55 Q796.15 -9.69 797.83 -11.56 Q799.52 -13.44 802.33 -13.44 Q804.84 -13.44 806.29 -11.74 Q807.74 -10.04 807.74 -7.10 Z M805.58 -7.74 Q805.54 -9.63 804.69 -10.62 Q803.83 -11.61 802.24 -11.61 Q800.68 -11.61 799.68 -10.58 Q798.67 -9.55 798.48 -7.72 L805.58 -7.74 Z M821.59 -0.67 Q820.72 -0.16 819.80 0.09 Q818.88 0.34 817.92 0.34 Q814.88 0.34 813.16 -1.48 Q811.44 -3.31 811.44 -6.55 Q811.44 -9.78 813.16 -11.61 Q814.88 -13.44 817.92 -13.44 Q818.87 -13.44 819.77 -13.19 Q820.68 -12.95 821.59 -12.43 L821.59 -10.17 Q820.74 -10.93 819.87 -11.27 Q819.01 -11.61 817.92 -11.61 Q815.89 -11.61 814.80 -10.30 Q813.72 -8.99 813.72 -6.55 Q813.72 -4.12 814.81 -2.80 Q815.91 -1.49 817.92 -1.49 Q819.05 -1.49 819.94 -1.83 Q820.83 -2.18 821.59 -2.91 L821.59 -0.67 Z M830.82 -11.61 Q829.19 -11.61 828.34 -10.33 Q827.50 -9.06 827.50 -6.55 Q827.50 -4.05 828.34 -2.77 Q829.19 -1.49 830.82 -1.49 Q832.48 -1.49 833.32 -2.77 Q834.17 -4.05 834.17 -6.55 Q834.17 -9.06 833.32 -10.33 Q832.48 -11.61 830.82 -11.61 Z M830.82 -13.44 Q833.55 -13.44 835.00 -11.67 Q836.45 -9.90 836.45 -6.55 Q836.45 -3.19 835.01 -1.42 Q833.57 0.34 830.82 0.34 Q828.09 0.34 826.65 -1.42 Q825.21 -3.19 825.21 -6.55 Q825.21 -9.90 826.65 -11.67 Q828.09 -13.44 830.82 -13.44 Z M848.11 -11.45 L848.11 -18.24 L850.26 -18.24 L850.26 0.00 L848.11 0.00 L848.11 -1.65 Q847.57 -0.68 846.67 -0.17 Q845.78 0.34 844.61 0.34 Q842.23 0.34 840.86 -1.50 Q839.49 -3.35 839.49 -6.60 Q839.49 -9.80 840.87 -11.62 Q842.24 -13.44 844.61 -13.44 Q845.79 -13.44 846.69 -12.93 Q847.59 -12.42 848.11 -11.45 Z M841.77 -6.55 Q841.77 -4.04 842.57 -2.76 Q843.36 -1.49 844.92 -1.49 Q846.48 -1.49 847.29 -2.77 Q848.11 -4.06 848.11 -6.55 Q848.11 -9.05 847.29 -10.33 Q846.48 -11.61 844.92 -11.61 Q843.36 -11.61 842.57 -10.33 Q841.77 -9.06 841.77 -6.55 Z M865.54 -7.10 L865.54 -6.05 L856.19 -6.05 L856.19 -5.98 Q856.19 -3.83 857.31 -2.66 Q858.43 -1.49 860.47 -1.49 Q861.50 -1.49 862.63 -1.81 Q863.75 -2.15 865.03 -2.81 L865.03 -0.67 Q863.80 -0.16 862.66 0.09 Q861.52 0.34 860.45 0.34 Q857.39 0.34 855.67 -1.49 Q853.94 -3.33 853.94 -6.55 Q853.94 -9.69 855.63 -11.56 Q857.32 -13.44 860.13 -13.44 Q862.64 -13.44 864.09 -11.74 Q865.54 -10.04 865.54 -7.10 Z M863.38 -7.74 Q863.33 -9.63 862.48 -10.62 Q861.63 -11.61 860.04 -11.61 Q858.48 -11.61 857.47 -10.58 Q856.46 -9.55 856.28 -7.72 L863.38 -7.74 Z M888.62 -1.99 L892.73 -17.50 L895.18 -17.50 L890.06 0.00 L887.19 0.00 L882.07 -17.50 L884.52 -17.50 L888.62 -1.99 Z M896.86 -17.50 L900.03 -17.50 L903.05 -8.59 L906.09 -17.50 L909.27 -17.50 L909.27 0.00 L907.08 0.00 L907.08 -15.46 L903.96 -6.24 L902.17 -6.24 L899.04 -15.46 L899.04 0.00 L896.86 0.00 L896.86 -17.50 Z" fill="#00C2D6" opacity="0.85"/></g><rect x="256.8" y="548" width="686.3" height="46" rx="12" fill="#0A1A40" stroke="#5B667A" stroke-opacity="0.5"/><g transform="translate(282.8,578)"><path d="M4.97 -16.72 L9.53 -16.72 L9.53 -15.18 L6.95 -15.18 L6.95 1.36 L9.53 1.36 L9.53 2.90 L4.97 2.90 L4.97 -16.72 Z M16.15 -1.83 L19.52 -1.83 L19.52 -14.08 L15.89 -13.27 L15.89 -15.24 L19.50 -16.04 L21.67 -16.04 L21.67 -1.83 L25.00 -1.83 L25.00 0.00 L16.15 0.00 L16.15 -1.83 Z M31.88 -3.26 L34.59 -3.26 L34.59 -1.03 L32.47 3.08 L30.82 3.08 L31.88 -1.03 L31.88 -3.26 Z M43.74 -1.83 L51.11 -1.83 L51.11 0.00 L41.37 0.00 L41.37 -1.83 Q43.38 -3.94 44.88 -5.57 Q46.38 -7.19 46.95 -7.85 Q48.03 -9.16 48.40 -9.98 Q48.78 -10.79 48.78 -11.63 Q48.78 -12.98 47.99 -13.74 Q47.20 -14.50 45.83 -14.50 Q44.85 -14.50 43.77 -14.15 Q42.70 -13.79 41.50 -13.07 L41.50 -15.27 Q42.60 -15.79 43.67 -16.06 Q44.74 -16.33 45.78 -16.33 Q48.14 -16.33 49.57 -15.08 Q51.00 -13.83 51.00 -11.79 Q51.00 -10.76 50.53 -9.73 Q50.05 -8.70 48.98 -7.46 Q48.37 -6.76 47.23 -5.52 Q46.08 -4.29 43.74 -1.83 Z M58.37 -3.26 L61.08 -3.26 L61.08 -1.03 L58.97 3.08 L57.31 3.08 L58.37 -1.03 L58.37 -3.26 Z M74.56 -8.58 Q76.14 -8.16 76.98 -7.09 Q77.82 -6.03 77.82 -4.43 Q77.82 -2.21 76.33 -0.95 Q74.84 0.31 72.21 0.31 Q71.10 0.31 69.95 0.11 Q68.80 -0.10 67.70 -0.48 L67.70 -2.64 Q68.79 -2.07 69.86 -1.79 Q70.92 -1.52 71.97 -1.52 Q73.76 -1.52 74.71 -2.32 Q75.67 -3.12 75.67 -4.64 Q75.67 -6.04 74.71 -6.86 Q73.76 -7.68 72.12 -7.68 L70.47 -7.68 L70.47 -9.46 L72.12 -9.46 Q73.62 -9.46 74.45 -10.12 Q75.29 -10.77 75.29 -11.95 Q75.29 -13.18 74.51 -13.84 Q73.73 -14.50 72.30 -14.50 Q71.34 -14.50 70.32 -14.29 Q69.30 -14.07 68.18 -13.64 L68.18 -15.64 Q69.48 -15.98 70.49 -16.16 Q71.51 -16.33 72.30 -16.33 Q74.64 -16.33 76.04 -15.15 Q77.44 -13.98 77.44 -12.03 Q77.44 -10.71 76.70 -9.83 Q75.97 -8.95 74.56 -8.58 Z M84.86 -3.26 L87.57 -3.26 L87.57 -1.03 L85.46 3.08 L83.80 3.08 L84.86 -1.03 L84.86 -3.26 Z M100.61 -14.06 L95.55 -5.59 L100.61 -5.59 L100.61 -14.06 Z M100.26 -16.04 L102.77 -16.04 L102.77 -5.59 L104.91 -5.59 L104.91 -3.83 L102.77 -3.83 L102.77 0.00 L100.61 0.00 L100.61 -3.83 L93.81 -3.83 L93.81 -5.87 L100.26 -16.04 Z M114.23 -16.72 L114.23 2.90 L109.68 2.90 L109.68 1.36 L112.25 1.36 L112.25 -15.18 L109.68 -15.18 L109.68 -16.72 L114.23 -16.72 Z M139.99 -16.81 L139.99 5.19 L138.14 5.19 L138.14 -16.81 L139.99 -16.81 Z M146.64 -10.32 L146.64 -12.28 L158.00 -7.79 L158.00 -6.01 L146.64 -1.52 L146.64 -3.48 L155.77 -6.89 L146.64 -10.32 Z M179.45 -10.81 Q179.81 -11.58 180.38 -11.95 Q180.94 -12.32 181.74 -12.32 Q183.19 -12.32 183.78 -11.20 Q184.38 -10.08 184.38 -6.97 L184.38 0.00 L182.57 0.00 L182.57 -6.89 Q182.57 -9.43 182.29 -10.05 Q182.00 -10.67 181.25 -10.67 Q180.40 -10.67 180.08 -10.01 Q179.76 -9.35 179.76 -6.89 L179.76 0.00 L177.95 0.00 L177.95 -6.89 Q177.95 -9.46 177.65 -10.06 Q177.34 -10.67 176.55 -10.67 Q175.76 -10.67 175.46 -10.01 Q175.15 -9.35 175.15 -6.89 L175.15 0.00 L173.36 0.00 L173.36 -12.03 L175.15 -12.03 L175.15 -11.00 Q175.51 -11.65 176.04 -11.98 Q176.57 -12.32 177.25 -12.32 Q178.06 -12.32 178.60 -11.95 Q179.15 -11.57 179.45 -10.81 Z M192.97 -6.05 L192.32 -6.05 Q190.59 -6.05 189.71 -5.44 Q188.84 -4.83 188.84 -3.63 Q188.84 -2.55 189.49 -1.95 Q190.15 -1.34 191.31 -1.34 Q192.94 -1.34 193.87 -2.48 Q194.81 -3.61 194.82 -5.61 L194.82 -6.05 L192.97 -6.05 Z M196.81 -6.86 L196.81 0.00 L194.82 0.00 L194.82 -1.78 Q194.19 -0.71 193.22 -0.20 Q192.27 0.31 190.89 0.31 Q189.05 0.31 187.95 -0.73 Q186.86 -1.76 186.86 -3.50 Q186.86 -5.51 188.21 -6.55 Q189.56 -7.59 192.17 -7.59 L194.82 -7.59 L194.82 -7.91 Q194.81 -9.35 194.09 -10.00 Q193.37 -10.65 191.79 -10.65 Q190.78 -10.65 189.75 -10.35 Q188.72 -10.06 187.74 -9.51 L187.74 -11.48 Q188.84 -11.90 189.84 -12.11 Q190.85 -12.32 191.79 -12.32 Q193.28 -12.32 194.34 -11.88 Q195.40 -11.44 196.06 -10.56 Q196.46 -10.02 196.63 -9.23 Q196.81 -8.44 196.81 -6.86 Z M202.71 -1.52 L202.71 4.58 L200.72 4.58 L200.72 -12.03 L202.71 -12.03 L202.71 -10.49 Q203.20 -11.39 204.02 -11.85 Q204.84 -12.32 205.92 -12.32 Q208.10 -12.32 209.34 -10.63 Q210.58 -8.95 210.58 -5.96 Q210.58 -3.03 209.33 -1.36 Q208.09 0.31 205.92 0.31 Q204.82 0.31 204.00 -0.15 Q203.18 -0.62 202.71 -1.52 Z M208.50 -6.01 Q208.50 -8.30 207.78 -9.47 Q207.06 -10.65 205.63 -10.65 Q204.19 -10.65 203.44 -9.47 Q202.71 -8.29 202.71 -6.01 Q202.71 -3.73 203.44 -2.54 Q204.19 -1.36 205.63 -1.36 Q207.06 -1.36 207.78 -2.53 Q208.50 -3.71 208.50 -6.01 Z M221.43 -16.69 Q220.00 -14.24 219.30 -11.81 Q218.59 -9.38 218.59 -6.91 Q218.59 -4.45 219.30 -2.01 Q220.00 0.43 221.43 2.90 L219.71 2.90 Q218.09 0.34 217.29 -2.08 Q216.50 -4.50 216.50 -6.91 Q216.50 -9.30 217.29 -11.73 Q218.09 -14.16 219.71 -16.69 L221.43 -16.69 Z M234.68 -16.69 Q233.25 -14.24 232.54 -11.81 Q231.84 -9.38 231.84 -6.91 Q231.84 -4.45 232.54 -2.01 Q233.25 0.43 234.68 2.90 L232.96 2.90 Q231.33 0.34 230.54 -2.08 Q229.74 -4.50 229.74 -6.91 Q229.74 -9.30 230.54 -11.73 Q231.33 -14.16 232.96 -16.69 L234.68 -16.69 Z M251.66 4.33 L251.66 5.19 L238.41 5.19 L238.41 4.33 L251.66 4.33 Z M270.15 -3.28 L272.86 -3.28 L272.86 0.00 L270.15 0.00 L270.15 -3.28 Z M285.72 -16.04 L290.62 -10.05 L288.71 -10.05 L284.76 -14.30 L280.83 -10.05 L278.92 -10.05 L283.82 -16.04 L285.72 -16.04 Z M308.65 -1.83 L316.01 -1.83 L316.01 0.00 L306.27 0.00 L306.27 -1.83 Q308.28 -3.94 309.78 -5.57 Q311.29 -7.19 311.86 -7.85 Q312.93 -9.16 313.31 -9.98 Q313.68 -10.79 313.68 -11.63 Q313.68 -12.98 312.89 -13.74 Q312.10 -14.50 310.73 -14.50 Q309.75 -14.50 308.68 -14.15 Q307.60 -13.79 306.40 -13.07 L306.40 -15.27 Q307.50 -15.79 308.57 -16.06 Q309.64 -16.33 310.68 -16.33 Q313.04 -16.33 314.47 -15.08 Q315.91 -13.83 315.91 -11.79 Q315.91 -10.76 315.43 -9.73 Q314.95 -8.70 313.88 -7.46 Q313.28 -6.76 312.13 -5.52 Q310.99 -4.29 308.65 -1.83 Z M321.62 -16.69 L323.34 -16.69 Q324.96 -14.16 325.75 -11.73 Q326.55 -9.30 326.55 -6.91 Q326.55 -4.49 325.75 -2.06 Q324.96 0.36 323.34 2.90 L321.62 2.90 Q323.05 0.41 323.75 -2.03 Q324.46 -4.47 324.46 -6.91 Q324.46 -9.36 323.75 -11.79 Q323.05 -14.23 321.62 -16.69 Z M336.52 -3.26 L339.23 -3.26 L339.23 -1.03 L337.11 3.08 L335.46 3.08 L336.52 -1.03 L336.52 -3.26 Z M368.77 -5.85 Q368.77 -7.24 368.08 -8.07 Q367.39 -8.91 366.24 -8.91 Q365.09 -8.91 364.40 -8.07 Q363.71 -7.24 363.71 -5.85 Q363.71 -4.46 364.40 -3.63 Q365.09 -2.79 366.24 -2.79 Q367.39 -2.79 368.08 -3.63 Q368.77 -4.46 368.77 -5.85 Z M370.27 -1.45 L368.72 -1.45 L368.72 -2.64 Q368.33 -1.97 367.62 -1.60 Q366.92 -1.23 366.04 -1.23 Q364.31 -1.23 363.18 -2.53 Q362.05 -3.84 362.05 -5.85 Q362.05 -7.88 363.18 -9.17 Q364.31 -10.47 366.04 -10.47 Q366.90 -10.47 367.62 -10.10 Q368.34 -9.72 368.72 -9.07 L368.72 -9.74 Q368.72 -11.42 367.78 -12.44 Q366.83 -13.46 365.28 -13.46 Q362.63 -13.46 361.07 -11.40 Q359.51 -9.35 359.51 -5.83 Q359.51 -2.30 361.28 -0.20 Q363.05 1.89 366.00 1.89 Q366.58 1.89 367.16 1.78 Q367.74 1.68 368.35 1.45 L368.87 2.90 Q368.19 3.17 367.53 3.30 Q366.87 3.43 366.24 3.43 Q362.41 3.43 360.16 0.92 Q357.91 -1.58 357.91 -5.83 Q357.91 -10.02 359.92 -12.50 Q361.95 -14.98 365.34 -14.98 Q367.59 -14.98 368.93 -13.55 Q370.27 -12.13 370.27 -9.72 L370.27 -1.45 Z M374.60 -16.69 L376.32 -16.69 Q377.94 -14.16 378.74 -11.73 Q379.53 -9.30 379.53 -6.91 Q379.53 -4.49 378.74 -2.06 Q377.94 0.36 376.32 2.90 L374.60 2.90 Q376.03 0.41 376.73 -2.03 Q377.44 -4.47 377.44 -6.91 Q377.44 -9.36 376.73 -11.79 Q376.03 -14.23 374.60 -16.69 Z M404.90 -16.81 L404.90 5.19 L403.05 5.19 L403.05 -16.81 L404.90 -16.81 Z M411.54 -10.32 L411.54 -12.28 L422.90 -7.79 L422.90 -6.01 L411.54 -1.52 L411.54 -3.48 L420.67 -6.89 L411.54 -10.32 Z M447.54 -11.61 L447.54 -9.68 Q446.69 -10.17 445.83 -10.42 Q444.97 -10.67 444.08 -10.67 Q442.74 -10.67 442.08 -10.23 Q441.42 -9.80 441.42 -8.91 Q441.42 -8.10 441.91 -7.70 Q442.41 -7.30 444.37 -6.93 L445.17 -6.78 Q446.64 -6.50 447.39 -5.66 Q448.15 -4.82 448.15 -3.48 Q448.15 -1.70 446.89 -0.69 Q445.62 0.31 443.36 0.31 Q442.47 0.31 441.49 0.12 Q440.52 -0.07 439.38 -0.44 L439.38 -2.48 Q440.49 -1.91 441.49 -1.63 Q442.50 -1.34 443.41 -1.34 Q444.72 -1.34 445.44 -1.87 Q446.16 -2.41 446.16 -3.36 Q446.16 -4.74 443.52 -5.26 L443.44 -5.29 L442.70 -5.43 Q440.99 -5.77 440.20 -6.56 Q439.42 -7.35 439.42 -8.71 Q439.42 -10.44 440.59 -11.38 Q441.76 -12.32 443.93 -12.32 Q444.90 -12.32 445.79 -12.14 Q446.68 -11.97 447.54 -11.61 Z M452.43 -4.55 L452.43 -12.01 L454.40 -12.01 L454.40 -4.55 Q454.40 -2.93 454.98 -2.17 Q455.56 -1.41 456.76 -1.41 Q458.15 -1.41 458.89 -2.39 Q459.64 -3.37 459.64 -5.21 L459.64 -12.01 L461.62 -12.01 L461.62 0.00 L459.64 0.00 L459.64 -1.80 Q459.11 -0.76 458.20 -0.22 Q457.29 0.31 456.08 0.31 Q454.23 0.31 453.33 -0.90 Q452.43 -2.11 452.43 -4.55 Z M470.84 -10.81 Q471.21 -11.58 471.77 -11.95 Q472.33 -12.32 473.13 -12.32 Q474.58 -12.32 475.17 -11.20 Q475.77 -10.08 475.77 -6.97 L475.77 0.00 L473.97 0.00 L473.97 -6.89 Q473.97 -9.43 473.68 -10.05 Q473.40 -10.67 472.65 -10.67 Q471.79 -10.67 471.47 -10.01 Q471.15 -9.35 471.15 -6.89 L471.15 0.00 L469.35 0.00 L469.35 -6.89 Q469.35 -9.46 469.04 -10.06 Q468.74 -10.67 467.94 -10.67 Q467.16 -10.67 466.85 -10.01 Q466.55 -9.35 466.55 -6.89 L466.55 0.00 L464.75 0.00 L464.75 -12.03 L466.55 -12.03 L466.55 -11.00 Q466.90 -11.65 467.43 -11.98 Q467.96 -12.32 468.64 -12.32 Q469.45 -12.32 470.00 -11.95 Q470.54 -11.57 470.84 -10.81 Z M486.33 -16.69 Q484.90 -14.24 484.20 -11.81 Q483.50 -9.38 483.50 -6.91 Q483.50 -4.45 484.20 -2.01 Q484.90 0.43 486.33 2.90 L484.61 2.90 Q482.99 0.34 482.19 -2.08 Q481.40 -4.50 481.40 -6.91 Q481.40 -9.30 482.19 -11.73 Q482.99 -14.16 484.61 -16.69 L486.33 -16.69 Z M501.22 -5.85 Q501.22 -7.24 500.53 -8.07 Q499.85 -8.91 498.69 -8.91 Q497.55 -8.91 496.85 -8.07 Q496.16 -7.24 496.16 -5.85 Q496.16 -4.46 496.85 -3.63 Q497.55 -2.79 498.69 -2.79 Q499.85 -2.79 500.53 -3.63 Q501.22 -4.46 501.22 -5.85 Z M502.72 -1.45 L501.18 -1.45 L501.18 -2.64 Q500.78 -1.97 500.08 -1.60 Q499.37 -1.23 498.49 -1.23 Q496.76 -1.23 495.63 -2.53 Q494.50 -3.84 494.50 -5.85 Q494.50 -7.88 495.63 -9.17 Q496.76 -10.47 498.49 -10.47 Q499.35 -10.47 500.07 -10.10 Q500.79 -9.72 501.18 -9.07 L501.18 -9.74 Q501.18 -11.42 500.23 -12.44 Q499.29 -13.46 497.73 -13.46 Q495.08 -13.46 493.52 -11.40 Q491.96 -9.35 491.96 -5.83 Q491.96 -2.30 493.73 -0.20 Q495.50 1.89 498.45 1.89 Q499.03 1.89 499.61 1.78 Q500.19 1.68 500.80 1.45 L501.32 2.90 Q500.64 3.17 499.98 3.30 Q499.32 3.43 498.69 3.43 Q494.86 3.43 492.61 0.92 Q490.36 -1.58 490.36 -5.83 Q490.36 -10.02 492.38 -12.50 Q494.40 -14.98 497.79 -14.98 Q500.04 -14.98 501.38 -13.55 Q502.72 -12.13 502.72 -9.72 L502.72 -1.45 Z M507.05 -16.69 L508.77 -16.69 Q510.39 -14.16 511.19 -11.73 Q511.98 -9.30 511.98 -6.91 Q511.98 -4.49 511.19 -2.06 Q510.39 0.36 508.77 2.90 L507.05 2.90 Q508.48 0.41 509.19 -2.03 Q509.89 -4.47 509.89 -6.91 Q509.89 -9.36 509.19 -11.79 Q508.48 -14.23 507.05 -16.69 Z M557.24 -5.63 L568.59 -5.63 L568.59 -3.78 L557.24 -3.78 L557.24 -5.63 Z M557.24 -9.99 L568.59 -9.99 L568.59 -8.16 L557.24 -8.16 L557.24 -9.99 Z M570.49 -10.32 L570.49 -12.28 L581.84 -7.79 L581.84 -6.01 L570.49 -1.52 L570.49 -3.48 L579.62 -6.89 L570.49 -10.32 Z M617.61 -8.58 Q619.19 -8.16 620.03 -7.09 Q620.87 -6.03 620.87 -4.43 Q620.87 -2.21 619.38 -0.95 Q617.89 0.31 615.26 0.31 Q614.15 0.31 613.00 0.11 Q611.85 -0.10 610.75 -0.48 L610.75 -2.64 Q611.84 -2.07 612.91 -1.79 Q613.97 -1.52 615.02 -1.52 Q616.81 -1.52 617.76 -2.32 Q618.72 -3.12 618.72 -4.64 Q618.72 -6.04 617.76 -6.86 Q616.81 -7.68 615.17 -7.68 L613.52 -7.68 L613.52 -9.46 L615.17 -9.46 Q616.67 -9.46 617.50 -10.12 Q618.34 -10.77 618.34 -11.95 Q618.34 -13.18 617.56 -13.84 Q616.78 -14.50 615.35 -14.50 Q614.39 -14.50 613.37 -14.29 Q612.35 -14.07 611.23 -13.64 L611.23 -15.64 Q612.53 -15.98 613.54 -16.16 Q614.56 -16.33 615.35 -16.33 Q617.69 -16.33 619.09 -15.15 Q620.49 -13.98 620.49 -12.03 Q620.49 -10.71 619.75 -9.83 Q619.02 -8.95 617.61 -8.58 Z M627.71 -8.06 Q627.71 -8.65 628.12 -9.08 Q628.54 -9.51 629.12 -9.51 Q629.72 -9.51 630.15 -9.08 Q630.58 -8.65 630.58 -8.06 Q630.58 -7.46 630.15 -7.04 Q629.73 -6.62 629.12 -6.62 Q628.52 -6.62 628.11 -7.03 Q627.71 -7.44 627.71 -8.06 Z M629.14 -14.61 Q627.62 -14.61 626.88 -12.98 Q626.13 -11.34 626.13 -8.00 Q626.13 -4.67 626.88 -3.04 Q627.62 -1.41 629.14 -1.41 Q630.66 -1.41 631.41 -3.04 Q632.16 -4.67 632.16 -8.00 Q632.16 -11.34 631.41 -12.98 Q630.66 -14.61 629.14 -14.61 Z M629.14 -16.33 Q631.71 -16.33 633.02 -14.22 Q634.34 -12.12 634.34 -8.00 Q634.34 -3.90 633.02 -1.79 Q631.71 0.31 629.14 0.31 Q626.57 0.31 625.26 -1.79 Q623.95 -3.90 623.95 -8.00 Q623.95 -12.12 625.26 -14.22 Q626.57 -16.33 629.14 -16.33 Z" fill="#C9D3E4"/></g></svg>